<mxfile host="app.diagrams.net" agent="Mozilla/5.0 (Windows NT 10.0; Win64; x64) AppleWebKit/537.36 (KHTML, like Gecko) Chrome/138.0.0.0 Safari/537.36" version="28.0.4">
  <diagram name="Página-1" id="F9ZbjXq_2hF0X_W6Iih5">
    <mxGraphModel dx="254" dy="127" grid="1" gridSize="10" guides="1" tooltips="1" connect="1" arrows="1" fold="1" page="1" pageScale="1" pageWidth="827" pageHeight="1169" background="#ffffff" math="0" shadow="0">
      <root>
        <mxCell id="0" />
        <mxCell id="1" parent="0" />
        <mxCell id="z1DIlWsaXBudhujdUeSy-23" value="" style="shape=ext;double=1;rounded=0;whiteSpace=wrap;html=1;flipH=0;flipV=0;fillColor=light-dark(#F5F5F5,#FFFFFF);strokeColor=#616B7E;movable=1;resizable=1;rotatable=1;deletable=1;editable=1;locked=0;connectable=1;" parent="1" vertex="1">
          <mxGeometry x="243.5" y="140" width="474" height="300" as="geometry" />
        </mxCell>
        <mxCell id="z1DIlWsaXBudhujdUeSy-13" value="" style="shape=ext;double=1;rounded=0;whiteSpace=wrap;html=1;fillColor=#F5F5F5;strokeColor=#616B7E;movable=0;resizable=0;rotatable=0;deletable=0;editable=0;locked=1;connectable=0;" parent="1" vertex="1">
          <mxGeometry x="240" y="140" width="120" height="120" as="geometry" />
        </mxCell>
        <mxCell id="pUSu7AH3x52gKbN0NDce-35" value="" style="endArrow=none;html=1;rounded=0;exitX=0.661;exitY=0.662;exitDx=0;exitDy=0;exitPerimeter=0;strokeColor=#90C3FF;" parent="1" source="pUSu7AH3x52gKbN0NDce-26" target="pUSu7AH3x52gKbN0NDce-19" edge="1">
          <mxGeometry width="50" height="50" relative="1" as="geometry">
            <mxPoint x="260" y="200" as="sourcePoint" />
            <mxPoint x="310" y="150" as="targetPoint" />
          </mxGeometry>
        </mxCell>
        <mxCell id="pUSu7AH3x52gKbN0NDce-82" value="" style="rounded=0;whiteSpace=wrap;html=1;fillColor=#776150;strokeColor=#372219;flipV=0;" parent="1" vertex="1">
          <mxGeometry x="445" y="216" width="17" height="21" as="geometry" />
        </mxCell>
        <mxCell id="z1DIlWsaXBudhujdUeSy-16" value="" style="shape=ext;double=1;rounded=0;whiteSpace=wrap;html=1;fillColor=none;strokeColor=#616B7E;movable=0;resizable=0;rotatable=0;deletable=0;editable=0;locked=1;connectable=0;" parent="1" vertex="1">
          <mxGeometry x="358" y="140" width="120" height="120" as="geometry" />
        </mxCell>
        <mxCell id="z1DIlWsaXBudhujdUeSy-17" value="" style="shape=ext;double=1;rounded=0;whiteSpace=wrap;html=1;fillColor=#F5F5F5;strokeColor=#616B7E;movable=0;resizable=0;rotatable=0;deletable=0;editable=0;locked=1;connectable=0;" parent="1" vertex="1">
          <mxGeometry x="476" y="140" width="120" height="120" as="geometry" />
        </mxCell>
        <mxCell id="z1DIlWsaXBudhujdUeSy-18" value="" style="shape=ext;double=1;rounded=0;whiteSpace=wrap;html=1;fillColor=#F5F5F5;strokeColor=#616B7E;movable=0;resizable=0;rotatable=0;deletable=0;editable=0;locked=1;connectable=0;" parent="1" vertex="1">
          <mxGeometry x="594" y="140" width="120" height="120" as="geometry" />
        </mxCell>
        <mxCell id="z1DIlWsaXBudhujdUeSy-19" value="" style="shape=ext;double=1;rounded=0;whiteSpace=wrap;html=1;fillColor=#F5F5F5;strokeColor=#616B7E;movable=1;resizable=1;rotatable=1;deletable=1;editable=1;locked=0;connectable=1;" parent="1" vertex="1">
          <mxGeometry x="594" y="320" width="61" height="120" as="geometry" />
        </mxCell>
        <mxCell id="z1DIlWsaXBudhujdUeSy-20" value="" style="shape=ext;double=1;rounded=0;whiteSpace=wrap;html=1;fillColor=#F5F5F5;strokeColor=#616B7E;movable=0;resizable=0;rotatable=0;deletable=0;editable=0;locked=1;connectable=0;" parent="1" vertex="1">
          <mxGeometry x="653" y="320" width="61" height="120" as="geometry" />
        </mxCell>
        <mxCell id="z1DIlWsaXBudhujdUeSy-22" value="" style="shape=ext;double=1;rounded=0;whiteSpace=wrap;html=1;fillColor=#F5F5F5;strokeColor=#616B7E;movable=0;resizable=0;rotatable=0;deletable=0;editable=0;locked=1;connectable=0;" parent="1" vertex="1">
          <mxGeometry x="358" y="320" width="120" height="120" as="geometry" />
        </mxCell>
        <mxCell id="z1DIlWsaXBudhujdUeSy-14" value="" style="verticalLabelPosition=bottom;html=1;verticalAlign=top;align=center;shape=mxgraph.floorplan.doorRight;aspect=fixed;rotation=-180;fillColor=#C3A386;strokeColor=#60452F;movable=0;resizable=0;rotatable=0;deletable=0;editable=0;locked=1;connectable=0;" parent="1" vertex="1">
          <mxGeometry x="368.24" y="230" width="28.24" height="30" as="geometry" />
        </mxCell>
        <mxCell id="z1DIlWsaXBudhujdUeSy-25" value="" style="verticalLabelPosition=bottom;html=1;verticalAlign=top;align=center;shape=mxgraph.floorplan.doorRight;aspect=fixed;rotation=-180;fillColor=#C3A386;strokeColor=#60452F;" parent="1" vertex="1">
          <mxGeometry x="486.76" y="230" width="28.24" height="30" as="geometry" />
        </mxCell>
        <mxCell id="z1DIlWsaXBudhujdUeSy-26" value="" style="verticalLabelPosition=bottom;html=1;verticalAlign=top;align=center;shape=mxgraph.floorplan.doorRight;aspect=fixed;rotation=-180;fillColor=#C3A386;strokeColor=#60452F;" parent="1" vertex="1">
          <mxGeometry x="610.38" y="230" width="28.24" height="30" as="geometry" />
        </mxCell>
        <mxCell id="z1DIlWsaXBudhujdUeSy-28" value="" style="verticalLabelPosition=bottom;html=1;verticalAlign=top;align=center;shape=mxgraph.floorplan.doorLeft;rotation=-180;fillColor=#C3A386;strokeColor=#60452F;" parent="1" vertex="1">
          <mxGeometry x="320" y="230" width="28.24" height="30" as="geometry" />
        </mxCell>
        <mxCell id="z1DIlWsaXBudhujdUeSy-29" value="" style="verticalLabelPosition=bottom;html=1;verticalAlign=top;align=center;shape=mxgraph.floorplan.doorLeft;rotation=0;fillColor=#C3A386;strokeColor=#60452F;" parent="1" vertex="1">
          <mxGeometry x="368.24" y="320" width="28.24" height="30" as="geometry" />
        </mxCell>
        <mxCell id="z1DIlWsaXBudhujdUeSy-30" value="" style="verticalLabelPosition=bottom;html=1;verticalAlign=top;align=center;shape=mxgraph.floorplan.doorLeft;rotation=0;fillColor=#C3A386;strokeColor=#60452F;" parent="1" vertex="1">
          <mxGeometry x="490" y="320" width="28.24" height="30" as="geometry" />
        </mxCell>
        <mxCell id="z1DIlWsaXBudhujdUeSy-31" value="" style="verticalLabelPosition=bottom;html=1;verticalAlign=top;align=center;shape=mxgraph.floorplan.doorLeft;rotation=0;fillColor=#C3A386;strokeColor=#60452F;" parent="1" vertex="1">
          <mxGeometry x="600" y="320" width="28.24" height="30" as="geometry" />
        </mxCell>
        <mxCell id="z1DIlWsaXBudhujdUeSy-32" value="" style="verticalLabelPosition=bottom;html=1;verticalAlign=top;align=center;shape=mxgraph.floorplan.doorRight;aspect=fixed;rotation=0;fillColor=#C3A386;strokeColor=#60452F;" parent="1" vertex="1">
          <mxGeometry x="680" y="320" width="28.24" height="30" as="geometry" />
        </mxCell>
        <mxCell id="z1DIlWsaXBudhujdUeSy-36" value="" style="verticalLabelPosition=bottom;html=1;verticalAlign=top;align=center;shape=mxgraph.floorplan.doorRight;aspect=fixed;rotation=-180;fillColor=#C3A386;strokeColor=#60452F;" parent="1" vertex="1">
          <mxGeometry x="250" y="410" width="28.24" height="30" as="geometry" />
        </mxCell>
        <mxCell id="z1DIlWsaXBudhujdUeSy-42" value="" style="rounded=0;whiteSpace=wrap;html=1;fillColor=#776150;strokeColor=#372219;" parent="1" vertex="1">
          <mxGeometry x="291" y="320" width="29" height="117" as="geometry" />
        </mxCell>
        <mxCell id="z1DIlWsaXBudhujdUeSy-43" value="" style="rounded=0;whiteSpace=wrap;html=1;fillColor=#776150;strokeColor=#372219;" parent="1" vertex="1">
          <mxGeometry x="291" y="320" width="49" height="20" as="geometry" />
        </mxCell>
        <mxCell id="z1DIlWsaXBudhujdUeSy-39" value="" style="image;points=[];aspect=fixed;html=1;align=center;shadow=1;dashed=0;image=img/lib/allied_telesis/computer_and_terminals/Personal_Computer_with_Server.svg;imageBorder=none;imageBackground=none;flipV=0;flipH=1;" parent="1" vertex="1">
          <mxGeometry x="296" y="342" width="20" height="20" as="geometry" />
        </mxCell>
        <mxCell id="z1DIlWsaXBudhujdUeSy-40" value="" style="image;points=[];aspect=fixed;html=1;align=center;shadow=1;dashed=0;image=img/lib/allied_telesis/computer_and_terminals/Personal_Computer_with_Server.svg;imageBorder=none;imageBackground=none;flipV=0;flipH=1;" parent="1" vertex="1">
          <mxGeometry x="296" y="369" width="20" height="20" as="geometry" />
        </mxCell>
        <mxCell id="z1DIlWsaXBudhujdUeSy-41" value="" style="image;points=[];aspect=fixed;html=1;align=center;shadow=1;dashed=0;image=img/lib/allied_telesis/computer_and_terminals/Personal_Computer_with_Server.svg;imageBorder=none;imageBackground=none;flipV=0;flipH=1;" parent="1" vertex="1">
          <mxGeometry x="296" y="397" width="20" height="20" as="geometry" />
        </mxCell>
        <mxCell id="z1DIlWsaXBudhujdUeSy-46" value="" style="rounded=0;whiteSpace=wrap;html=1;fillColor=#776150;strokeColor=#776150;" parent="1" vertex="1">
          <mxGeometry x="292" y="332" width="27" height="9" as="geometry" />
        </mxCell>
        <mxCell id="z1DIlWsaXBudhujdUeSy-47" value="Recepção" style="rounded=0;whiteSpace=wrap;html=1;fontSize=7;fillColor=#FFB6D5;strokeColor=#862C56;fontColor=#000000;" parent="1" vertex="1">
          <mxGeometry x="296" y="310" width="40" height="10" as="geometry" />
        </mxCell>
        <mxCell id="z1DIlWsaXBudhujdUeSy-48" value="Marketing" style="rounded=0;whiteSpace=wrap;html=1;fontSize=7;fillColor=#FFB6D5;strokeColor=#862C56;fontColor=#000000;" parent="1" vertex="1">
          <mxGeometry x="256" y="250" width="40" height="10" as="geometry" />
        </mxCell>
        <mxCell id="z1DIlWsaXBudhujdUeSy-49" value="RH" style="rounded=0;whiteSpace=wrap;html=1;fontSize=7;fillColor=#FFB6D5;strokeColor=#862C56;fontColor=#000000;movable=0;resizable=0;rotatable=0;deletable=0;editable=0;locked=1;connectable=0;" parent="1" vertex="1">
          <mxGeometry x="442.5" y="250" width="22" height="10" as="geometry" />
        </mxCell>
        <mxCell id="z1DIlWsaXBudhujdUeSy-50" value="Logística" style="rounded=0;whiteSpace=wrap;html=1;fontSize=7;fillColor=#FFB6D5;strokeColor=#862C56;fontColor=#000000;" parent="1" vertex="1">
          <mxGeometry x="550" y="247" width="40" height="10" as="geometry" />
        </mxCell>
        <mxCell id="z1DIlWsaXBudhujdUeSy-52" value="Financeiro&lt;span style=&quot;color: rgba(0, 0, 0, 0); font-family: monospace; font-size: 0px; text-align: start; text-wrap-mode: nowrap;&quot;&gt;%3CmxGraphModel%3E%3Croot%3E%3CmxCell%20id%3D%220%22%2F%3E%3CmxCell%20id%3D%221%22%20parent%3D%220%22%2F%3E%3CmxCell%20id%3D%222%22%20value%3D%22Marketing%22%20style%3D%22rounded%3D0%3BwhiteSpace%3Dwrap%3Bhtml%3D1%3BfontSize%3D7%3BfillColor%3D%23FFB6D5%3BstrokeColor%3D%23862C56%3BfontColor%3D%23000000%3B%22%20vertex%3D%221%22%20parent%3D%221%22%3E%3CmxGeometry%20x%3D%22278.24%22%20y%3D%22250%22%20width%3D%2240%22%20height%3D%2210%22%20as%3D%22geometry%22%2F%3E%3C%2FmxCell%3E%3C%2Froot%3E%3C%2FmxGraphModel%3E&lt;/span&gt;" style="rounded=0;whiteSpace=wrap;html=1;fontSize=7;fillColor=#FFB6D5;strokeColor=#862C56;fontColor=#000000;" parent="1" vertex="1">
          <mxGeometry x="645" y="247" width="40" height="10" as="geometry" />
        </mxCell>
        <mxCell id="z1DIlWsaXBudhujdUeSy-53" value="Diretoria" style="rounded=0;whiteSpace=wrap;html=1;fontSize=7;fillColor=#FFB6D5;strokeColor=#862C56;fontColor=#000000;" parent="1" vertex="1">
          <mxGeometry x="411" y="320" width="40" height="10" as="geometry" />
        </mxCell>
        <mxCell id="z1DIlWsaXBudhujdUeSy-54" value="T.I." style="rounded=0;whiteSpace=wrap;html=1;fontSize=7;fillColor=#FFB6D5;strokeColor=#862C56;fontColor=#000000;" parent="1" vertex="1">
          <mxGeometry x="564" y="323" width="20" height="10" as="geometry" />
        </mxCell>
        <mxCell id="z1DIlWsaXBudhujdUeSy-55" value="W.C.&lt;div&gt;F&lt;/div&gt;" style="rounded=0;whiteSpace=wrap;html=1;fontSize=7;fillColor=#FFB6D5;strokeColor=#862C56;fontColor=#000000;" parent="1" vertex="1">
          <mxGeometry x="633" y="320" width="20" height="20" as="geometry" />
        </mxCell>
        <mxCell id="z1DIlWsaXBudhujdUeSy-56" value="W.C.&lt;div&gt;M&lt;/div&gt;" style="rounded=0;whiteSpace=wrap;html=1;fontSize=7;fillColor=#FFB6D5;strokeColor=#862C56;fontColor=#000000;" parent="1" vertex="1">
          <mxGeometry x="655" y="320" width="20" height="20" as="geometry" />
        </mxCell>
        <mxCell id="pUSu7AH3x52gKbN0NDce-3" value="" style="image;points=[];aspect=fixed;html=1;align=center;shadow=1;dashed=0;image=img/lib/allied_telesis/computer_and_terminals/Personal_Computer_with_Server.svg;imageBorder=none;imageBackground=none;flipV=0;flipH=1;" parent="1" vertex="1">
          <mxGeometry x="254" y="144" width="14" height="14" as="geometry" />
        </mxCell>
        <mxCell id="pUSu7AH3x52gKbN0NDce-13" value="" style="rounded=0;whiteSpace=wrap;html=1;strokeWidth=1;fillColor=#FFCCFF;strokeColor=#985891;" parent="1" vertex="1">
          <mxGeometry x="243" y="143" width="3" height="114" as="geometry" />
        </mxCell>
        <mxCell id="pUSu7AH3x52gKbN0NDce-16" value="" style="endArrow=none;html=1;rounded=0;entryX=0.525;entryY=0.482;entryDx=0;entryDy=0;entryPerimeter=0;strokeColor=#90C3FF;" parent="1" source="pUSu7AH3x52gKbN0NDce-3" target="pUSu7AH3x52gKbN0NDce-15" edge="1">
          <mxGeometry width="50" height="50" relative="1" as="geometry">
            <mxPoint x="220" y="190" as="sourcePoint" />
            <mxPoint x="270" y="140" as="targetPoint" />
          </mxGeometry>
        </mxCell>
        <mxCell id="pUSu7AH3x52gKbN0NDce-15" value="" style="rounded=0;whiteSpace=wrap;html=1;fillColor=light-dark(#9970C2,#EDEDED);strokeColor=#411E5D;" parent="1" vertex="1">
          <mxGeometry x="246" y="144" width="4" height="4" as="geometry" />
        </mxCell>
        <mxCell id="pUSu7AH3x52gKbN0NDce-18" value="" style="image;points=[];aspect=fixed;html=1;align=center;shadow=1;dashed=0;image=img/lib/allied_telesis/computer_and_terminals/Personal_Computer_with_Server.svg;imageBorder=none;imageBackground=none;flipV=0;flipH=1;" parent="1" vertex="1">
          <mxGeometry x="254" y="161" width="14" height="14" as="geometry" />
        </mxCell>
        <mxCell id="pUSu7AH3x52gKbN0NDce-19" value="" style="image;points=[];aspect=fixed;html=1;align=center;shadow=1;dashed=0;image=img/lib/allied_telesis/computer_and_terminals/Personal_Computer_with_Server.svg;imageBorder=none;imageBackground=none;flipV=0;flipH=1;" parent="1" vertex="1">
          <mxGeometry x="254" y="178" width="14" height="14" as="geometry" />
        </mxCell>
        <mxCell id="pUSu7AH3x52gKbN0NDce-21" value="" style="image;points=[];aspect=fixed;html=1;align=center;shadow=1;dashed=0;image=img/lib/allied_telesis/computer_and_terminals/Personal_Computer_with_Server.svg;imageBorder=none;imageBackground=none;flipV=0;flipH=1;" parent="1" vertex="1">
          <mxGeometry x="254" y="196" width="14" height="14" as="geometry" />
        </mxCell>
        <mxCell id="pUSu7AH3x52gKbN0NDce-34" value="" style="endArrow=none;html=1;rounded=0;exitX=0.661;exitY=0.472;exitDx=0;exitDy=0;exitPerimeter=0;strokeColor=#90C3FF;" parent="1" source="pUSu7AH3x52gKbN0NDce-25" target="pUSu7AH3x52gKbN0NDce-18" edge="1">
          <mxGeometry width="50" height="50" relative="1" as="geometry">
            <mxPoint x="260" y="190" as="sourcePoint" />
            <mxPoint x="310" y="140" as="targetPoint" />
          </mxGeometry>
        </mxCell>
        <mxCell id="pUSu7AH3x52gKbN0NDce-25" value="" style="rounded=0;whiteSpace=wrap;html=1;fillColor=light-dark(#9970C2,#EDEDED);strokeColor=#411E5D;" parent="1" vertex="1">
          <mxGeometry x="246" y="161" width="4" height="4" as="geometry" />
        </mxCell>
        <mxCell id="pUSu7AH3x52gKbN0NDce-36" value="" style="endArrow=none;html=1;rounded=0;exitX=0.661;exitY=0.601;exitDx=0;exitDy=0;exitPerimeter=0;strokeColor=#90C3FF;" parent="1" source="pUSu7AH3x52gKbN0NDce-27" target="pUSu7AH3x52gKbN0NDce-21" edge="1">
          <mxGeometry width="50" height="50" relative="1" as="geometry">
            <mxPoint x="260" y="220" as="sourcePoint" />
            <mxPoint x="310" y="170" as="targetPoint" />
          </mxGeometry>
        </mxCell>
        <mxCell id="pUSu7AH3x52gKbN0NDce-26" value="" style="rounded=0;whiteSpace=wrap;html=1;fillColor=light-dark(#9970C2,#EDEDED);strokeColor=#411E5D;" parent="1" vertex="1">
          <mxGeometry x="246" y="178" width="4" height="4" as="geometry" />
        </mxCell>
        <mxCell id="pUSu7AH3x52gKbN0NDce-27" value="" style="rounded=0;whiteSpace=wrap;html=1;fillColor=light-dark(#9970C2,#EDEDED);strokeColor=#411E5D;" parent="1" vertex="1">
          <mxGeometry x="246" y="196" width="4" height="4" as="geometry" />
        </mxCell>
        <mxCell id="pUSu7AH3x52gKbN0NDce-37" value="" style="endArrow=none;html=1;rounded=0;entryX=0.442;entryY=0.674;entryDx=0;entryDy=0;entryPerimeter=0;fontColor=#90C3FF;strokeColor=#90C3FF;" parent="1" source="pUSu7AH3x52gKbN0NDce-20" target="pUSu7AH3x52gKbN0NDce-30" edge="1">
          <mxGeometry width="50" height="50" relative="1" as="geometry">
            <mxPoint x="260" y="260" as="sourcePoint" />
            <mxPoint x="310" y="210" as="targetPoint" />
          </mxGeometry>
        </mxCell>
        <mxCell id="pUSu7AH3x52gKbN0NDce-30" value="" style="rounded=0;whiteSpace=wrap;html=1;fillColor=light-dark(#9970C2,#EDEDED);strokeColor=#411E5D;" parent="1" vertex="1">
          <mxGeometry x="246" y="214" width="4" height="4" as="geometry" />
        </mxCell>
        <mxCell id="pUSu7AH3x52gKbN0NDce-20" value="" style="image;points=[];aspect=fixed;html=1;align=center;shadow=1;dashed=0;image=img/lib/allied_telesis/computer_and_terminals/Personal_Computer_with_Server.svg;imageBorder=none;imageBackground=none;flipV=0;flipH=1;" parent="1" vertex="1">
          <mxGeometry x="254" y="214" width="14" height="14" as="geometry" />
        </mxCell>
        <mxCell id="pUSu7AH3x52gKbN0NDce-38" value="" style="image;points=[];aspect=fixed;html=1;align=center;shadow=1;dashed=0;image=img/lib/allied_telesis/computer_and_terminals/Personal_Computer_with_Server.svg;imageBorder=none;imageBackground=none;flipV=0;flipH=1;" parent="1" vertex="1">
          <mxGeometry x="254" y="231" width="14" height="14" as="geometry" />
        </mxCell>
        <mxCell id="pUSu7AH3x52gKbN0NDce-40" value="" style="endArrow=none;html=1;rounded=0;exitX=0.706;exitY=0.475;exitDx=0;exitDy=0;exitPerimeter=0;strokeColor=#90C3FF;" parent="1" source="pUSu7AH3x52gKbN0NDce-39" target="pUSu7AH3x52gKbN0NDce-38" edge="1">
          <mxGeometry width="50" height="50" relative="1" as="geometry">
            <mxPoint x="250" y="240" as="sourcePoint" />
            <mxPoint x="300" y="190" as="targetPoint" />
          </mxGeometry>
        </mxCell>
        <mxCell id="pUSu7AH3x52gKbN0NDce-39" value="" style="rounded=0;whiteSpace=wrap;html=1;fillColor=light-dark(#9970C2,#EDEDED);strokeColor=#411E5D;" parent="1" vertex="1">
          <mxGeometry x="246" y="231" width="4" height="4" as="geometry" />
        </mxCell>
        <mxCell id="pUSu7AH3x52gKbN0NDce-50" value="" style="endArrow=none;html=1;rounded=0;entryX=0.51;entryY=0.452;entryDx=0;entryDy=0;entryPerimeter=0;strokeColor=#90C3FF;" parent="1" source="pUSu7AH3x52gKbN0NDce-49" target="pUSu7AH3x52gKbN0NDce-29" edge="1">
          <mxGeometry width="50" height="50" relative="1" as="geometry">
            <mxPoint x="270" y="210" as="sourcePoint" />
            <mxPoint x="320" y="160" as="targetPoint" />
          </mxGeometry>
        </mxCell>
        <mxCell id="pUSu7AH3x52gKbN0NDce-41" value="" style="rounded=0;whiteSpace=wrap;html=1;strokeWidth=1;fillColor=#FFCCFF;strokeColor=#985891;" parent="1" vertex="1">
          <mxGeometry x="355" y="143" width="3" height="114" as="geometry" />
        </mxCell>
        <mxCell id="pUSu7AH3x52gKbN0NDce-29" value="" style="rounded=0;whiteSpace=wrap;html=1;fillColor=light-dark(#9970C2,#EDEDED);strokeColor=#411E5D;" parent="1" vertex="1">
          <mxGeometry x="351" y="144" width="4" height="4" as="geometry" />
        </mxCell>
        <mxCell id="pUSu7AH3x52gKbN0NDce-51" value="" style="endArrow=none;html=1;rounded=0;entryX=0.558;entryY=0.481;entryDx=0;entryDy=0;entryPerimeter=0;strokeColor=#90C3FF;" parent="1" source="pUSu7AH3x52gKbN0NDce-48" target="pUSu7AH3x52gKbN0NDce-42" edge="1">
          <mxGeometry width="50" height="50" relative="1" as="geometry">
            <mxPoint x="270" y="210" as="sourcePoint" />
            <mxPoint x="320" y="160" as="targetPoint" />
          </mxGeometry>
        </mxCell>
        <mxCell id="pUSu7AH3x52gKbN0NDce-52" value="" style="endArrow=none;html=1;rounded=0;entryX=0.558;entryY=0.558;entryDx=0;entryDy=0;entryPerimeter=0;strokeColor=#90C3FF;" parent="1" source="pUSu7AH3x52gKbN0NDce-47" target="pUSu7AH3x52gKbN0NDce-44" edge="1">
          <mxGeometry width="50" height="50" relative="1" as="geometry">
            <mxPoint x="270" y="210" as="sourcePoint" />
            <mxPoint x="320" y="160" as="targetPoint" />
          </mxGeometry>
        </mxCell>
        <mxCell id="pUSu7AH3x52gKbN0NDce-42" value="" style="rounded=0;whiteSpace=wrap;html=1;fillColor=light-dark(#9970C2,#EDEDED);strokeColor=#411E5D;" parent="1" vertex="1">
          <mxGeometry x="351" y="161" width="4" height="4" as="geometry" />
        </mxCell>
        <mxCell id="pUSu7AH3x52gKbN0NDce-53" value="" style="endArrow=none;html=1;rounded=0;entryX=0.558;entryY=0.529;entryDx=0;entryDy=0;entryPerimeter=0;strokeColor=#90C3FF;" parent="1" source="pUSu7AH3x52gKbN0NDce-46" target="pUSu7AH3x52gKbN0NDce-45" edge="1">
          <mxGeometry width="50" height="50" relative="1" as="geometry">
            <mxPoint x="270" y="210" as="sourcePoint" />
            <mxPoint x="320" y="160" as="targetPoint" />
          </mxGeometry>
        </mxCell>
        <mxCell id="pUSu7AH3x52gKbN0NDce-44" value="" style="rounded=0;whiteSpace=wrap;html=1;fillColor=light-dark(#9970C2,#EDEDED);strokeColor=#411E5D;" parent="1" vertex="1">
          <mxGeometry x="351" y="178" width="4" height="4" as="geometry" />
        </mxCell>
        <mxCell id="pUSu7AH3x52gKbN0NDce-45" value="" style="rounded=0;whiteSpace=wrap;html=1;fillColor=light-dark(#9970C2,#EDEDED);strokeColor=#411E5D;" parent="1" vertex="1">
          <mxGeometry x="351" y="196" width="4" height="4" as="geometry" />
        </mxCell>
        <mxCell id="pUSu7AH3x52gKbN0NDce-46" value="" style="image;points=[];aspect=fixed;html=1;align=center;shadow=1;dashed=0;image=img/lib/allied_telesis/computer_and_terminals/Personal_Computer_with_Server.svg;imageBorder=none;imageBackground=none;flipV=0;flipH=0;" parent="1" vertex="1">
          <mxGeometry x="332" y="196" width="14" height="14" as="geometry" />
        </mxCell>
        <mxCell id="pUSu7AH3x52gKbN0NDce-47" value="" style="image;points=[];aspect=fixed;html=1;align=center;shadow=1;dashed=0;image=img/lib/allied_telesis/computer_and_terminals/Personal_Computer_with_Server.svg;imageBorder=none;imageBackground=none;flipV=0;flipH=0;" parent="1" vertex="1">
          <mxGeometry x="332" y="178" width="14" height="14" as="geometry" />
        </mxCell>
        <mxCell id="pUSu7AH3x52gKbN0NDce-104" value="" style="rounded=0;whiteSpace=wrap;html=1;strokeWidth=1;fillColor=#FFCCFF;strokeColor=#985891;" parent="1" vertex="1">
          <mxGeometry x="361" y="143" width="3" height="57" as="geometry" />
        </mxCell>
        <mxCell id="pUSu7AH3x52gKbN0NDce-48" value="" style="image;points=[];aspect=fixed;html=1;align=center;shadow=1;dashed=0;image=img/lib/allied_telesis/computer_and_terminals/Personal_Computer_with_Server.svg;imageBorder=none;imageBackground=none;flipV=0;flipH=0;" parent="1" vertex="1">
          <mxGeometry x="332" y="161" width="14" height="14" as="geometry" />
        </mxCell>
        <mxCell id="pUSu7AH3x52gKbN0NDce-49" value="" style="image;points=[];aspect=fixed;html=1;align=center;shadow=1;dashed=0;image=img/lib/allied_telesis/computer_and_terminals/Personal_Computer_with_Server.svg;imageBorder=none;imageBackground=none;flipV=0;flipH=0;" parent="1" vertex="1">
          <mxGeometry x="332" y="144" width="14" height="14" as="geometry" />
        </mxCell>
        <mxCell id="pUSu7AH3x52gKbN0NDce-70" value="" style="rounded=0;whiteSpace=wrap;html=1;fillColor=#776150;strokeColor=#372219;flipV=0;" parent="1" vertex="1">
          <mxGeometry x="361" y="143" width="114" height="17" as="geometry" />
        </mxCell>
        <mxCell id="pUSu7AH3x52gKbN0NDce-71" value="" style="rounded=0;whiteSpace=wrap;html=1;fillColor=#776150;strokeColor=#372219;flipV=0;" parent="1" vertex="1">
          <mxGeometry x="361" y="200" width="101" height="17" as="geometry" />
        </mxCell>
        <mxCell id="pUSu7AH3x52gKbN0NDce-86" value="" style="rounded=0;whiteSpace=wrap;html=1;strokeColor=#776150;fillColor=#776150;" parent="1" vertex="1">
          <mxGeometry x="446" y="215.5" width="15" height="3" as="geometry" />
        </mxCell>
        <mxCell id="pUSu7AH3x52gKbN0NDce-112" value="" style="rounded=0;whiteSpace=wrap;html=1;strokeWidth=1;fillColor=#FFCCFF;strokeColor=#985891;opacity=50;" parent="1" vertex="1">
          <mxGeometry x="361" y="143" width="114" height="2" as="geometry" />
        </mxCell>
        <mxCell id="pUSu7AH3x52gKbN0NDce-108" value="" style="rounded=0;whiteSpace=wrap;html=1;fillColor=light-dark(#9970C2,#EDEDED);strokeColor=#411E5D;opacity=50;" parent="1" vertex="1">
          <mxGeometry x="361" y="145" width="4" height="4" as="geometry" />
        </mxCell>
        <mxCell id="eZUUJ8Yt2M7rZzIzO6yd-2" value="" style="rounded=0;whiteSpace=wrap;html=1;strokeWidth=1;fillColor=#FFCCFF;strokeColor=#985891;opacity=50;" parent="1" vertex="1">
          <mxGeometry x="361" y="215" width="100" height="2" as="geometry" />
        </mxCell>
        <mxCell id="eZUUJ8Yt2M7rZzIzO6yd-3" value="" style="rounded=0;whiteSpace=wrap;html=1;strokeWidth=1;fillColor=#FFCCFF;strokeColor=#985891;opacity=50;" parent="1" vertex="1">
          <mxGeometry x="459" y="215" width="2" height="21" as="geometry" />
        </mxCell>
        <mxCell id="eZUUJ8Yt2M7rZzIzO6yd-4" value="" style="rounded=0;whiteSpace=wrap;html=1;fillColor=light-dark(#9970C2,#EDEDED);strokeColor=#411E5D;opacity=50;" parent="1" vertex="1">
          <mxGeometry x="378" y="145" width="4" height="4" as="geometry" />
        </mxCell>
        <mxCell id="eZUUJ8Yt2M7rZzIzO6yd-5" value="" style="rounded=0;whiteSpace=wrap;html=1;fillColor=light-dark(#9970C2,#EDEDED);strokeColor=#411E5D;opacity=50;" parent="1" vertex="1">
          <mxGeometry x="398" y="145" width="4" height="4" as="geometry" />
        </mxCell>
        <mxCell id="eZUUJ8Yt2M7rZzIzO6yd-6" value="" style="rounded=0;whiteSpace=wrap;html=1;fillColor=light-dark(#9970C2,#EDEDED);strokeColor=#411E5D;opacity=50;" parent="1" vertex="1">
          <mxGeometry x="417" y="145" width="4" height="4" as="geometry" />
        </mxCell>
        <mxCell id="eZUUJ8Yt2M7rZzIzO6yd-7" value="" style="rounded=0;whiteSpace=wrap;html=1;fillColor=light-dark(#9970C2,#EDEDED);strokeColor=#411E5D;opacity=50;" parent="1" vertex="1">
          <mxGeometry x="435" y="145" width="4" height="4" as="geometry" />
        </mxCell>
        <mxCell id="eZUUJ8Yt2M7rZzIzO6yd-8" value="" style="rounded=0;whiteSpace=wrap;html=1;fillColor=light-dark(#9970C2,#EDEDED);strokeColor=#411E5D;opacity=50;" parent="1" vertex="1">
          <mxGeometry x="453" y="145" width="4" height="4" as="geometry" />
        </mxCell>
        <mxCell id="eZUUJ8Yt2M7rZzIzO6yd-10" value="" style="rounded=0;whiteSpace=wrap;html=1;fillColor=light-dark(#9970C2,#EDEDED);strokeColor=#411E5D;opacity=50;" parent="1" vertex="1">
          <mxGeometry x="378" y="211" width="4" height="4" as="geometry" />
        </mxCell>
        <mxCell id="eZUUJ8Yt2M7rZzIzO6yd-11" value="" style="rounded=0;whiteSpace=wrap;html=1;fillColor=light-dark(#9970C2,#EDEDED);strokeColor=#411E5D;opacity=50;" parent="1" vertex="1">
          <mxGeometry x="398" y="211" width="4" height="4" as="geometry" />
        </mxCell>
        <mxCell id="eZUUJ8Yt2M7rZzIzO6yd-12" value="" style="rounded=0;whiteSpace=wrap;html=1;fillColor=light-dark(#9970C2,#EDEDED);strokeColor=#411E5D;opacity=50;" parent="1" vertex="1">
          <mxGeometry x="417" y="211.5" width="4" height="4" as="geometry" />
        </mxCell>
        <mxCell id="eZUUJ8Yt2M7rZzIzO6yd-13" value="" style="rounded=0;whiteSpace=wrap;html=1;fillColor=light-dark(#9970C2,#EDEDED);strokeColor=#411E5D;opacity=50;" parent="1" vertex="1">
          <mxGeometry x="435" y="211.5" width="4" height="4" as="geometry" />
        </mxCell>
        <mxCell id="eZUUJ8Yt2M7rZzIzO6yd-14" value="" style="rounded=0;whiteSpace=wrap;html=1;fillColor=light-dark(#9970C2,#EDEDED);strokeColor=#411E5D;opacity=50;" parent="1" vertex="1">
          <mxGeometry x="455" y="211" width="4" height="4" as="geometry" />
        </mxCell>
        <mxCell id="eZUUJ8Yt2M7rZzIzO6yd-15" value="" style="rounded=0;whiteSpace=wrap;html=1;fillColor=light-dark(#9970C2,#EDEDED);strokeColor=#411E5D;opacity=50;" parent="1" vertex="1">
          <mxGeometry x="455" y="232" width="4" height="4" as="geometry" />
        </mxCell>
        <mxCell id="pUSu7AH3x52gKbN0NDce-84" value="" style="image;points=[];aspect=fixed;html=1;align=center;shadow=1;dashed=0;image=img/lib/allied_telesis/computer_and_terminals/Personal_Computer_with_Server.svg;imageBorder=none;imageBackground=none;flipV=0;flipH=0;" parent="1" vertex="1">
          <mxGeometry x="446" y="217" width="14" height="14" as="geometry" />
        </mxCell>
        <mxCell id="pUSu7AH3x52gKbN0NDce-80" value="" style="image;points=[];aspect=fixed;html=1;align=center;shadow=1;dashed=0;image=img/lib/allied_telesis/computer_and_terminals/Personal_Computer_with_Server.svg;imageBorder=none;imageBackground=none;flipV=0;flipH=0;" parent="1" vertex="1">
          <mxGeometry x="439" y="201.5" width="14" height="14" as="geometry" />
        </mxCell>
        <mxCell id="pUSu7AH3x52gKbN0NDce-79" value="" style="image;points=[];aspect=fixed;html=1;align=center;shadow=1;dashed=0;image=img/lib/allied_telesis/computer_and_terminals/Personal_Computer_with_Server.svg;imageBorder=none;imageBackground=none;flipV=0;flipH=0;" parent="1" vertex="1">
          <mxGeometry x="419" y="201.5" width="14" height="14" as="geometry" />
        </mxCell>
        <mxCell id="pUSu7AH3x52gKbN0NDce-78" value="" style="image;points=[];aspect=fixed;html=1;align=center;shadow=1;dashed=0;image=img/lib/allied_telesis/computer_and_terminals/Personal_Computer_with_Server.svg;imageBorder=none;imageBackground=none;flipV=0;flipH=1;" parent="1" vertex="1">
          <mxGeometry x="401" y="201.5" width="14" height="14" as="geometry" />
        </mxCell>
        <mxCell id="pUSu7AH3x52gKbN0NDce-77" value="" style="image;points=[];aspect=fixed;html=1;align=center;shadow=1;dashed=0;image=img/lib/allied_telesis/computer_and_terminals/Personal_Computer_with_Server.svg;imageBorder=none;imageBackground=none;flipV=0;flipH=1;" parent="1" vertex="1">
          <mxGeometry x="382" y="201.5" width="14" height="14" as="geometry" />
        </mxCell>
        <mxCell id="pUSu7AH3x52gKbN0NDce-76" value="" style="image;points=[];aspect=fixed;html=1;align=center;shadow=1;dashed=0;image=img/lib/allied_telesis/computer_and_terminals/Personal_Computer_with_Server.svg;imageBorder=none;imageBackground=none;flipV=0;flipH=1;" parent="1" vertex="1">
          <mxGeometry x="362" y="202" width="14" height="14" as="geometry" />
        </mxCell>
        <mxCell id="pUSu7AH3x52gKbN0NDce-75" value="" style="image;points=[];aspect=fixed;html=1;align=center;shadow=1;dashed=0;image=img/lib/allied_telesis/computer_and_terminals/Personal_Computer_with_Server.svg;imageBorder=none;imageBackground=none;flipV=0;flipH=0;" parent="1" vertex="1">
          <mxGeometry x="459" y="144" width="14" height="14" as="geometry" />
        </mxCell>
        <mxCell id="pUSu7AH3x52gKbN0NDce-74" value="" style="image;points=[];aspect=fixed;html=1;align=center;shadow=1;dashed=0;image=img/lib/allied_telesis/computer_and_terminals/Personal_Computer_with_Server.svg;imageBorder=none;imageBackground=none;flipV=0;flipH=0;" parent="1" vertex="1">
          <mxGeometry x="441" y="144" width="14" height="14" as="geometry" />
        </mxCell>
        <mxCell id="pUSu7AH3x52gKbN0NDce-73" value="" style="image;points=[];aspect=fixed;html=1;align=center;shadow=1;dashed=0;image=img/lib/allied_telesis/computer_and_terminals/Personal_Computer_with_Server.svg;imageBorder=none;imageBackground=none;flipV=0;flipH=0;" parent="1" vertex="1">
          <mxGeometry x="423" y="144" width="14" height="14" as="geometry" />
        </mxCell>
        <mxCell id="pUSu7AH3x52gKbN0NDce-72" value="" style="image;points=[];aspect=fixed;html=1;align=center;shadow=1;dashed=0;image=img/lib/allied_telesis/computer_and_terminals/Personal_Computer_with_Server.svg;imageBorder=none;imageBackground=none;flipV=0;flipH=1;" parent="1" vertex="1">
          <mxGeometry x="404" y="144" width="14" height="14" as="geometry" />
        </mxCell>
        <mxCell id="pUSu7AH3x52gKbN0NDce-54" value="" style="image;points=[];aspect=fixed;html=1;align=center;shadow=1;dashed=0;image=img/lib/allied_telesis/computer_and_terminals/Personal_Computer_with_Server.svg;imageBorder=none;imageBackground=none;flipV=0;flipH=1;" parent="1" vertex="1">
          <mxGeometry x="384" y="145" width="14" height="14" as="geometry" />
        </mxCell>
        <mxCell id="pUSu7AH3x52gKbN0NDce-56" value="" style="image;points=[];aspect=fixed;html=1;align=center;shadow=1;dashed=0;image=img/lib/allied_telesis/computer_and_terminals/Personal_Computer_with_Server.svg;imageBorder=none;imageBackground=none;flipV=0;flipH=1;" parent="1" vertex="1">
          <mxGeometry x="366" y="144.5" width="14" height="14" as="geometry" />
        </mxCell>
        <mxCell id="eZUUJ8Yt2M7rZzIzO6yd-16" value="" style="rounded=0;whiteSpace=wrap;html=1;fillColor=#B3B3B3;strokeColor=#666666;flipV=0;" parent="1" vertex="1">
          <mxGeometry x="401" y="243" width="26" height="14" as="geometry" />
        </mxCell>
        <mxCell id="eZUUJ8Yt2M7rZzIzO6yd-17" value="&lt;font style=&quot;font-size: 4px; line-height: 160%;&quot;&gt;Impressora&lt;/font&gt;" style="rounded=0;whiteSpace=wrap;html=1;fontSize=7;fillColor=#FFB6D5;strokeColor=#862C56;fontColor=#000000;opacity=70;" parent="1" vertex="1">
          <mxGeometry x="403.5" y="247" width="21" height="6" as="geometry" />
        </mxCell>
        <mxCell id="eZUUJ8Yt2M7rZzIzO6yd-18" value="" style="endArrow=none;html=1;rounded=0;strokeColor=#90C3FF;entryX=0.555;entryY=0.563;entryDx=0;entryDy=0;entryPerimeter=0;" parent="1" source="pUSu7AH3x52gKbN0NDce-56" target="pUSu7AH3x52gKbN0NDce-108" edge="1">
          <mxGeometry width="50" height="50" relative="1" as="geometry">
            <mxPoint x="340" y="163" as="sourcePoint" />
            <mxPoint x="372" y="180" as="targetPoint" />
          </mxGeometry>
        </mxCell>
        <mxCell id="eZUUJ8Yt2M7rZzIzO6yd-19" value="" style="endArrow=none;html=1;rounded=0;strokeColor=#90C3FF;entryX=0.657;entryY=0.506;entryDx=0;entryDy=0;entryPerimeter=0;" parent="1" source="pUSu7AH3x52gKbN0NDce-54" target="eZUUJ8Yt2M7rZzIzO6yd-4" edge="1">
          <mxGeometry width="50" height="50" relative="1" as="geometry">
            <mxPoint x="380" y="170" as="sourcePoint" />
            <mxPoint x="370" y="150" as="targetPoint" />
          </mxGeometry>
        </mxCell>
        <mxCell id="eZUUJ8Yt2M7rZzIzO6yd-20" value="" style="endArrow=none;html=1;rounded=0;strokeColor=#90C3FF;entryX=0.597;entryY=0.569;entryDx=0;entryDy=0;entryPerimeter=0;" parent="1" source="pUSu7AH3x52gKbN0NDce-72" target="eZUUJ8Yt2M7rZzIzO6yd-5" edge="1">
          <mxGeometry width="50" height="50" relative="1" as="geometry">
            <mxPoint x="383" y="142" as="sourcePoint" />
            <mxPoint x="380" y="140" as="targetPoint" />
          </mxGeometry>
        </mxCell>
        <mxCell id="eZUUJ8Yt2M7rZzIzO6yd-21" value="" style="endArrow=none;html=1;rounded=0;strokeColor=#90C3FF;entryX=0.662;entryY=0.523;entryDx=0;entryDy=0;entryPerimeter=0;" parent="1" source="pUSu7AH3x52gKbN0NDce-73" target="eZUUJ8Yt2M7rZzIzO6yd-6" edge="1">
          <mxGeometry width="50" height="50" relative="1" as="geometry">
            <mxPoint x="383" y="142" as="sourcePoint" />
            <mxPoint x="380" y="140" as="targetPoint" />
          </mxGeometry>
        </mxCell>
        <mxCell id="eZUUJ8Yt2M7rZzIzO6yd-23" value="" style="endArrow=none;html=1;rounded=0;strokeColor=#90C3FF;entryX=0.606;entryY=0.569;entryDx=0;entryDy=0;entryPerimeter=0;" parent="1" source="pUSu7AH3x52gKbN0NDce-74" target="eZUUJ8Yt2M7rZzIzO6yd-7" edge="1">
          <mxGeometry width="50" height="50" relative="1" as="geometry">
            <mxPoint x="383" y="142" as="sourcePoint" />
            <mxPoint x="380" y="140" as="targetPoint" />
          </mxGeometry>
        </mxCell>
        <mxCell id="eZUUJ8Yt2M7rZzIzO6yd-24" value="" style="endArrow=none;html=1;rounded=0;strokeColor=#90C3FF;entryX=0.62;entryY=0.546;entryDx=0;entryDy=0;entryPerimeter=0;" parent="1" source="pUSu7AH3x52gKbN0NDce-75" target="eZUUJ8Yt2M7rZzIzO6yd-8" edge="1">
          <mxGeometry width="50" height="50" relative="1" as="geometry">
            <mxPoint x="433" y="141" as="sourcePoint" />
            <mxPoint x="430" y="140" as="targetPoint" />
          </mxGeometry>
        </mxCell>
        <mxCell id="eZUUJ8Yt2M7rZzIzO6yd-25" value="" style="endArrow=none;html=1;rounded=0;strokeColor=#90C3FF;entryX=0.486;entryY=0.258;entryDx=0;entryDy=0;entryPerimeter=0;" parent="1" source="pUSu7AH3x52gKbN0NDce-76" target="eZUUJ8Yt2M7rZzIzO6yd-10" edge="1">
          <mxGeometry width="50" height="50" relative="1" as="geometry">
            <mxPoint x="391" y="220.5" as="sourcePoint" />
            <mxPoint x="380" y="220" as="targetPoint" />
          </mxGeometry>
        </mxCell>
        <mxCell id="eZUUJ8Yt2M7rZzIzO6yd-26" value="" style="endArrow=none;html=1;rounded=0;strokeColor=#90C3FF;entryX=0.546;entryY=0.506;entryDx=0;entryDy=0;entryPerimeter=0;" parent="1" source="pUSu7AH3x52gKbN0NDce-77" target="eZUUJ8Yt2M7rZzIzO6yd-11" edge="1">
          <mxGeometry width="50" height="50" relative="1" as="geometry">
            <mxPoint x="370" y="210" as="sourcePoint" />
            <mxPoint x="374" y="211" as="targetPoint" />
          </mxGeometry>
        </mxCell>
        <mxCell id="eZUUJ8Yt2M7rZzIzO6yd-27" value="" style="endArrow=none;html=1;rounded=0;strokeColor=#90C3FF;entryX=0.508;entryY=0.493;entryDx=0;entryDy=0;entryPerimeter=0;" parent="1" source="pUSu7AH3x52gKbN0NDce-78" target="eZUUJ8Yt2M7rZzIzO6yd-12" edge="1">
          <mxGeometry width="50" height="50" relative="1" as="geometry">
            <mxPoint x="390" y="210" as="sourcePoint" />
            <mxPoint x="394" y="212" as="targetPoint" />
          </mxGeometry>
        </mxCell>
        <mxCell id="eZUUJ8Yt2M7rZzIzO6yd-28" value="" style="endArrow=none;html=1;rounded=0;strokeColor=#90C3FF;entryX=0.545;entryY=0.471;entryDx=0;entryDy=0;entryPerimeter=0;" parent="1" source="pUSu7AH3x52gKbN0NDce-79" target="eZUUJ8Yt2M7rZzIzO6yd-13" edge="1">
          <mxGeometry width="50" height="50" relative="1" as="geometry">
            <mxPoint x="410" y="210" as="sourcePoint" />
            <mxPoint x="414" y="211" as="targetPoint" />
          </mxGeometry>
        </mxCell>
        <mxCell id="eZUUJ8Yt2M7rZzIzO6yd-29" value="" style="endArrow=none;html=1;rounded=0;strokeColor=#90C3FF;entryX=0.5;entryY=0.404;entryDx=0;entryDy=0;entryPerimeter=0;" parent="1" source="pUSu7AH3x52gKbN0NDce-80" target="eZUUJ8Yt2M7rZzIzO6yd-14" edge="1">
          <mxGeometry width="50" height="50" relative="1" as="geometry">
            <mxPoint x="430" y="210" as="sourcePoint" />
            <mxPoint x="434" y="211" as="targetPoint" />
          </mxGeometry>
        </mxCell>
        <mxCell id="eZUUJ8Yt2M7rZzIzO6yd-30" value="" style="endArrow=none;html=1;rounded=0;strokeColor=#90C3FF;entryX=0.611;entryY=0.472;entryDx=0;entryDy=0;entryPerimeter=0;" parent="1" source="pUSu7AH3x52gKbN0NDce-84" target="eZUUJ8Yt2M7rZzIzO6yd-15" edge="1">
          <mxGeometry width="50" height="50" relative="1" as="geometry">
            <mxPoint x="450" y="210" as="sourcePoint" />
            <mxPoint x="454" y="212" as="targetPoint" />
          </mxGeometry>
        </mxCell>
        <mxCell id="eZUUJ8Yt2M7rZzIzO6yd-79" value="" style="rounded=0;whiteSpace=wrap;html=1;fillColor=#776150;strokeColor=#372219;flipV=0;" parent="1" vertex="1">
          <mxGeometry x="563" y="216" width="17" height="21" as="geometry" />
        </mxCell>
        <mxCell id="eZUUJ8Yt2M7rZzIzO6yd-80" value="" style="rounded=0;whiteSpace=wrap;html=1;strokeWidth=1;fillColor=#FFCCFF;strokeColor=#985891;" parent="1" vertex="1">
          <mxGeometry x="479" y="143" width="3" height="57" as="geometry" />
        </mxCell>
        <mxCell id="eZUUJ8Yt2M7rZzIzO6yd-81" value="" style="rounded=0;whiteSpace=wrap;html=1;fillColor=#776150;strokeColor=#372219;flipV=0;" parent="1" vertex="1">
          <mxGeometry x="479" y="143" width="114" height="17" as="geometry" />
        </mxCell>
        <mxCell id="eZUUJ8Yt2M7rZzIzO6yd-82" value="" style="rounded=0;whiteSpace=wrap;html=1;fillColor=#776150;strokeColor=#372219;flipV=0;" parent="1" vertex="1">
          <mxGeometry x="479" y="200" width="101" height="17" as="geometry" />
        </mxCell>
        <mxCell id="eZUUJ8Yt2M7rZzIzO6yd-83" value="" style="rounded=0;whiteSpace=wrap;html=1;strokeColor=#776150;fillColor=#776150;" parent="1" vertex="1">
          <mxGeometry x="564" y="215.5" width="15" height="3" as="geometry" />
        </mxCell>
        <mxCell id="eZUUJ8Yt2M7rZzIzO6yd-84" value="" style="rounded=0;whiteSpace=wrap;html=1;strokeWidth=1;fillColor=#FFCCFF;strokeColor=#985891;opacity=50;" parent="1" vertex="1">
          <mxGeometry x="479" y="143" width="114" height="2" as="geometry" />
        </mxCell>
        <mxCell id="eZUUJ8Yt2M7rZzIzO6yd-85" value="" style="rounded=0;whiteSpace=wrap;html=1;fillColor=light-dark(#9970C2,#EDEDED);strokeColor=#411E5D;opacity=50;" parent="1" vertex="1">
          <mxGeometry x="479" y="145" width="4" height="4" as="geometry" />
        </mxCell>
        <mxCell id="eZUUJ8Yt2M7rZzIzO6yd-86" value="" style="rounded=0;whiteSpace=wrap;html=1;strokeWidth=1;fillColor=#FFCCFF;strokeColor=#985891;opacity=50;" parent="1" vertex="1">
          <mxGeometry x="479" y="215" width="100" height="2" as="geometry" />
        </mxCell>
        <mxCell id="eZUUJ8Yt2M7rZzIzO6yd-87" value="" style="rounded=0;whiteSpace=wrap;html=1;strokeWidth=1;fillColor=#FFCCFF;strokeColor=#985891;opacity=50;" parent="1" vertex="1">
          <mxGeometry x="577" y="215" width="2" height="21" as="geometry" />
        </mxCell>
        <mxCell id="eZUUJ8Yt2M7rZzIzO6yd-88" value="" style="rounded=0;whiteSpace=wrap;html=1;fillColor=light-dark(#9970C2,#EDEDED);strokeColor=#411E5D;opacity=50;" parent="1" vertex="1">
          <mxGeometry x="496" y="145" width="4" height="4" as="geometry" />
        </mxCell>
        <mxCell id="eZUUJ8Yt2M7rZzIzO6yd-89" value="" style="rounded=0;whiteSpace=wrap;html=1;fillColor=light-dark(#9970C2,#EDEDED);strokeColor=#411E5D;opacity=50;" parent="1" vertex="1">
          <mxGeometry x="516" y="145" width="4" height="4" as="geometry" />
        </mxCell>
        <mxCell id="eZUUJ8Yt2M7rZzIzO6yd-90" value="" style="rounded=0;whiteSpace=wrap;html=1;fillColor=light-dark(#9970C2,#EDEDED);strokeColor=#411E5D;opacity=50;" parent="1" vertex="1">
          <mxGeometry x="535" y="145" width="4" height="4" as="geometry" />
        </mxCell>
        <mxCell id="eZUUJ8Yt2M7rZzIzO6yd-91" value="" style="rounded=0;whiteSpace=wrap;html=1;fillColor=light-dark(#9970C2,#EDEDED);strokeColor=#411E5D;opacity=50;" parent="1" vertex="1">
          <mxGeometry x="553" y="145" width="4" height="4" as="geometry" />
        </mxCell>
        <mxCell id="eZUUJ8Yt2M7rZzIzO6yd-92" value="" style="rounded=0;whiteSpace=wrap;html=1;fillColor=light-dark(#9970C2,#EDEDED);strokeColor=#411E5D;opacity=50;" parent="1" vertex="1">
          <mxGeometry x="571" y="145" width="4" height="4" as="geometry" />
        </mxCell>
        <mxCell id="eZUUJ8Yt2M7rZzIzO6yd-93" value="" style="rounded=0;whiteSpace=wrap;html=1;fillColor=light-dark(#9970C2,#EDEDED);strokeColor=#411E5D;opacity=50;" parent="1" vertex="1">
          <mxGeometry x="496" y="211" width="4" height="4" as="geometry" />
        </mxCell>
        <mxCell id="eZUUJ8Yt2M7rZzIzO6yd-94" value="" style="rounded=0;whiteSpace=wrap;html=1;fillColor=light-dark(#9970C2,#EDEDED);strokeColor=#411E5D;opacity=50;" parent="1" vertex="1">
          <mxGeometry x="516" y="211" width="4" height="4" as="geometry" />
        </mxCell>
        <mxCell id="eZUUJ8Yt2M7rZzIzO6yd-95" value="" style="rounded=0;whiteSpace=wrap;html=1;fillColor=light-dark(#9970C2,#EDEDED);strokeColor=#411E5D;opacity=50;" parent="1" vertex="1">
          <mxGeometry x="535" y="211.5" width="4" height="4" as="geometry" />
        </mxCell>
        <mxCell id="eZUUJ8Yt2M7rZzIzO6yd-96" value="" style="rounded=0;whiteSpace=wrap;html=1;fillColor=light-dark(#9970C2,#EDEDED);strokeColor=#411E5D;opacity=50;" parent="1" vertex="1">
          <mxGeometry x="553" y="211.5" width="4" height="4" as="geometry" />
        </mxCell>
        <mxCell id="eZUUJ8Yt2M7rZzIzO6yd-97" value="" style="rounded=0;whiteSpace=wrap;html=1;fillColor=light-dark(#9970C2,#EDEDED);strokeColor=#411E5D;opacity=50;" parent="1" vertex="1">
          <mxGeometry x="573" y="211" width="4" height="4" as="geometry" />
        </mxCell>
        <mxCell id="eZUUJ8Yt2M7rZzIzO6yd-98" value="" style="rounded=0;whiteSpace=wrap;html=1;fillColor=light-dark(#9970C2,#EDEDED);strokeColor=#411E5D;opacity=50;" parent="1" vertex="1">
          <mxGeometry x="573" y="232" width="4" height="4" as="geometry" />
        </mxCell>
        <mxCell id="eZUUJ8Yt2M7rZzIzO6yd-99" value="" style="image;points=[];aspect=fixed;html=1;align=center;shadow=1;dashed=0;image=img/lib/allied_telesis/computer_and_terminals/Personal_Computer_with_Server.svg;imageBorder=none;imageBackground=none;flipV=0;flipH=0;" parent="1" vertex="1">
          <mxGeometry x="564" y="217" width="14" height="14" as="geometry" />
        </mxCell>
        <mxCell id="eZUUJ8Yt2M7rZzIzO6yd-100" value="" style="image;points=[];aspect=fixed;html=1;align=center;shadow=1;dashed=0;image=img/lib/allied_telesis/computer_and_terminals/Personal_Computer_with_Server.svg;imageBorder=none;imageBackground=none;flipV=0;flipH=0;" parent="1" vertex="1">
          <mxGeometry x="557" y="201.5" width="14" height="14" as="geometry" />
        </mxCell>
        <mxCell id="eZUUJ8Yt2M7rZzIzO6yd-101" value="" style="image;points=[];aspect=fixed;html=1;align=center;shadow=1;dashed=0;image=img/lib/allied_telesis/computer_and_terminals/Personal_Computer_with_Server.svg;imageBorder=none;imageBackground=none;flipV=0;flipH=0;" parent="1" vertex="1">
          <mxGeometry x="537" y="201.5" width="14" height="14" as="geometry" />
        </mxCell>
        <mxCell id="eZUUJ8Yt2M7rZzIzO6yd-102" value="" style="image;points=[];aspect=fixed;html=1;align=center;shadow=1;dashed=0;image=img/lib/allied_telesis/computer_and_terminals/Personal_Computer_with_Server.svg;imageBorder=none;imageBackground=none;flipV=0;flipH=1;" parent="1" vertex="1">
          <mxGeometry x="519" y="201.5" width="14" height="14" as="geometry" />
        </mxCell>
        <mxCell id="eZUUJ8Yt2M7rZzIzO6yd-103" value="" style="image;points=[];aspect=fixed;html=1;align=center;shadow=1;dashed=0;image=img/lib/allied_telesis/computer_and_terminals/Personal_Computer_with_Server.svg;imageBorder=none;imageBackground=none;flipV=0;flipH=1;" parent="1" vertex="1">
          <mxGeometry x="500" y="201.5" width="14" height="14" as="geometry" />
        </mxCell>
        <mxCell id="eZUUJ8Yt2M7rZzIzO6yd-104" value="" style="image;points=[];aspect=fixed;html=1;align=center;shadow=1;dashed=0;image=img/lib/allied_telesis/computer_and_terminals/Personal_Computer_with_Server.svg;imageBorder=none;imageBackground=none;flipV=0;flipH=1;" parent="1" vertex="1">
          <mxGeometry x="480" y="202" width="14" height="14" as="geometry" />
        </mxCell>
        <mxCell id="eZUUJ8Yt2M7rZzIzO6yd-105" value="" style="image;points=[];aspect=fixed;html=1;align=center;shadow=1;dashed=0;image=img/lib/allied_telesis/computer_and_terminals/Personal_Computer_with_Server.svg;imageBorder=none;imageBackground=none;flipV=0;flipH=0;" parent="1" vertex="1">
          <mxGeometry x="577" y="144" width="14" height="14" as="geometry" />
        </mxCell>
        <mxCell id="eZUUJ8Yt2M7rZzIzO6yd-106" value="" style="image;points=[];aspect=fixed;html=1;align=center;shadow=1;dashed=0;image=img/lib/allied_telesis/computer_and_terminals/Personal_Computer_with_Server.svg;imageBorder=none;imageBackground=none;flipV=0;flipH=0;" parent="1" vertex="1">
          <mxGeometry x="559" y="144" width="14" height="14" as="geometry" />
        </mxCell>
        <mxCell id="eZUUJ8Yt2M7rZzIzO6yd-107" value="" style="image;points=[];aspect=fixed;html=1;align=center;shadow=1;dashed=0;image=img/lib/allied_telesis/computer_and_terminals/Personal_Computer_with_Server.svg;imageBorder=none;imageBackground=none;flipV=0;flipH=0;" parent="1" vertex="1">
          <mxGeometry x="541" y="144" width="14" height="14" as="geometry" />
        </mxCell>
        <mxCell id="eZUUJ8Yt2M7rZzIzO6yd-108" value="" style="image;points=[];aspect=fixed;html=1;align=center;shadow=1;dashed=0;image=img/lib/allied_telesis/computer_and_terminals/Personal_Computer_with_Server.svg;imageBorder=none;imageBackground=none;flipV=0;flipH=1;" parent="1" vertex="1">
          <mxGeometry x="522" y="144" width="14" height="14" as="geometry" />
        </mxCell>
        <mxCell id="eZUUJ8Yt2M7rZzIzO6yd-109" value="" style="image;points=[];aspect=fixed;html=1;align=center;shadow=1;dashed=0;image=img/lib/allied_telesis/computer_and_terminals/Personal_Computer_with_Server.svg;imageBorder=none;imageBackground=none;flipV=0;flipH=1;" parent="1" vertex="1">
          <mxGeometry x="502" y="145" width="14" height="14" as="geometry" />
        </mxCell>
        <mxCell id="eZUUJ8Yt2M7rZzIzO6yd-110" value="" style="image;points=[];aspect=fixed;html=1;align=center;shadow=1;dashed=0;image=img/lib/allied_telesis/computer_and_terminals/Personal_Computer_with_Server.svg;imageBorder=none;imageBackground=none;flipV=0;flipH=1;" parent="1" vertex="1">
          <mxGeometry x="484" y="144.5" width="14" height="14" as="geometry" />
        </mxCell>
        <mxCell id="eZUUJ8Yt2M7rZzIzO6yd-111" value="" style="endArrow=none;html=1;rounded=0;strokeColor=#90C3FF;entryX=0.555;entryY=0.563;entryDx=0;entryDy=0;entryPerimeter=0;" parent="1" source="eZUUJ8Yt2M7rZzIzO6yd-110" target="eZUUJ8Yt2M7rZzIzO6yd-85" edge="1">
          <mxGeometry width="50" height="50" relative="1" as="geometry">
            <mxPoint x="458" y="163" as="sourcePoint" />
            <mxPoint x="490" y="180" as="targetPoint" />
          </mxGeometry>
        </mxCell>
        <mxCell id="eZUUJ8Yt2M7rZzIzO6yd-112" value="" style="endArrow=none;html=1;rounded=0;strokeColor=#90C3FF;entryX=0.657;entryY=0.506;entryDx=0;entryDy=0;entryPerimeter=0;" parent="1" source="eZUUJ8Yt2M7rZzIzO6yd-109" target="eZUUJ8Yt2M7rZzIzO6yd-88" edge="1">
          <mxGeometry width="50" height="50" relative="1" as="geometry">
            <mxPoint x="498" y="170" as="sourcePoint" />
            <mxPoint x="488" y="150" as="targetPoint" />
          </mxGeometry>
        </mxCell>
        <mxCell id="eZUUJ8Yt2M7rZzIzO6yd-113" value="" style="endArrow=none;html=1;rounded=0;strokeColor=#90C3FF;entryX=0.597;entryY=0.569;entryDx=0;entryDy=0;entryPerimeter=0;" parent="1" source="eZUUJ8Yt2M7rZzIzO6yd-108" target="eZUUJ8Yt2M7rZzIzO6yd-89" edge="1">
          <mxGeometry width="50" height="50" relative="1" as="geometry">
            <mxPoint x="501" y="142" as="sourcePoint" />
            <mxPoint x="498" y="140" as="targetPoint" />
          </mxGeometry>
        </mxCell>
        <mxCell id="eZUUJ8Yt2M7rZzIzO6yd-114" value="" style="endArrow=none;html=1;rounded=0;strokeColor=#90C3FF;entryX=0.662;entryY=0.523;entryDx=0;entryDy=0;entryPerimeter=0;" parent="1" source="eZUUJ8Yt2M7rZzIzO6yd-107" target="eZUUJ8Yt2M7rZzIzO6yd-90" edge="1">
          <mxGeometry width="50" height="50" relative="1" as="geometry">
            <mxPoint x="501" y="142" as="sourcePoint" />
            <mxPoint x="498" y="140" as="targetPoint" />
          </mxGeometry>
        </mxCell>
        <mxCell id="eZUUJ8Yt2M7rZzIzO6yd-115" value="" style="endArrow=none;html=1;rounded=0;strokeColor=#90C3FF;entryX=0.606;entryY=0.569;entryDx=0;entryDy=0;entryPerimeter=0;" parent="1" source="eZUUJ8Yt2M7rZzIzO6yd-106" target="eZUUJ8Yt2M7rZzIzO6yd-91" edge="1">
          <mxGeometry width="50" height="50" relative="1" as="geometry">
            <mxPoint x="501" y="142" as="sourcePoint" />
            <mxPoint x="498" y="140" as="targetPoint" />
          </mxGeometry>
        </mxCell>
        <mxCell id="eZUUJ8Yt2M7rZzIzO6yd-116" value="" style="endArrow=none;html=1;rounded=0;strokeColor=#90C3FF;entryX=0.62;entryY=0.546;entryDx=0;entryDy=0;entryPerimeter=0;" parent="1" source="eZUUJ8Yt2M7rZzIzO6yd-105" target="eZUUJ8Yt2M7rZzIzO6yd-92" edge="1">
          <mxGeometry width="50" height="50" relative="1" as="geometry">
            <mxPoint x="551" y="141" as="sourcePoint" />
            <mxPoint x="548" y="140" as="targetPoint" />
          </mxGeometry>
        </mxCell>
        <mxCell id="eZUUJ8Yt2M7rZzIzO6yd-117" value="" style="endArrow=none;html=1;rounded=0;strokeColor=#90C3FF;entryX=0.486;entryY=0.258;entryDx=0;entryDy=0;entryPerimeter=0;" parent="1" source="eZUUJ8Yt2M7rZzIzO6yd-104" target="eZUUJ8Yt2M7rZzIzO6yd-93" edge="1">
          <mxGeometry width="50" height="50" relative="1" as="geometry">
            <mxPoint x="509" y="220.5" as="sourcePoint" />
            <mxPoint x="498" y="220" as="targetPoint" />
          </mxGeometry>
        </mxCell>
        <mxCell id="eZUUJ8Yt2M7rZzIzO6yd-118" value="" style="endArrow=none;html=1;rounded=0;strokeColor=#90C3FF;entryX=0.546;entryY=0.506;entryDx=0;entryDy=0;entryPerimeter=0;" parent="1" source="eZUUJ8Yt2M7rZzIzO6yd-103" target="eZUUJ8Yt2M7rZzIzO6yd-94" edge="1">
          <mxGeometry width="50" height="50" relative="1" as="geometry">
            <mxPoint x="488" y="210" as="sourcePoint" />
            <mxPoint x="492" y="211" as="targetPoint" />
          </mxGeometry>
        </mxCell>
        <mxCell id="eZUUJ8Yt2M7rZzIzO6yd-119" value="" style="endArrow=none;html=1;rounded=0;strokeColor=#90C3FF;entryX=0.508;entryY=0.493;entryDx=0;entryDy=0;entryPerimeter=0;" parent="1" source="eZUUJ8Yt2M7rZzIzO6yd-102" target="eZUUJ8Yt2M7rZzIzO6yd-95" edge="1">
          <mxGeometry width="50" height="50" relative="1" as="geometry">
            <mxPoint x="508" y="210" as="sourcePoint" />
            <mxPoint x="512" y="212" as="targetPoint" />
          </mxGeometry>
        </mxCell>
        <mxCell id="eZUUJ8Yt2M7rZzIzO6yd-120" value="" style="endArrow=none;html=1;rounded=0;strokeColor=#90C3FF;entryX=0.545;entryY=0.471;entryDx=0;entryDy=0;entryPerimeter=0;" parent="1" source="eZUUJ8Yt2M7rZzIzO6yd-101" target="eZUUJ8Yt2M7rZzIzO6yd-96" edge="1">
          <mxGeometry width="50" height="50" relative="1" as="geometry">
            <mxPoint x="528" y="210" as="sourcePoint" />
            <mxPoint x="532" y="211" as="targetPoint" />
          </mxGeometry>
        </mxCell>
        <mxCell id="eZUUJ8Yt2M7rZzIzO6yd-121" value="" style="endArrow=none;html=1;rounded=0;strokeColor=#90C3FF;entryX=0.5;entryY=0.404;entryDx=0;entryDy=0;entryPerimeter=0;" parent="1" source="eZUUJ8Yt2M7rZzIzO6yd-100" target="eZUUJ8Yt2M7rZzIzO6yd-97" edge="1">
          <mxGeometry width="50" height="50" relative="1" as="geometry">
            <mxPoint x="548" y="210" as="sourcePoint" />
            <mxPoint x="552" y="211" as="targetPoint" />
          </mxGeometry>
        </mxCell>
        <mxCell id="eZUUJ8Yt2M7rZzIzO6yd-122" value="" style="endArrow=none;html=1;rounded=0;strokeColor=#90C3FF;entryX=0.611;entryY=0.472;entryDx=0;entryDy=0;entryPerimeter=0;" parent="1" source="eZUUJ8Yt2M7rZzIzO6yd-99" target="eZUUJ8Yt2M7rZzIzO6yd-98" edge="1">
          <mxGeometry width="50" height="50" relative="1" as="geometry">
            <mxPoint x="568" y="210" as="sourcePoint" />
            <mxPoint x="572" y="212" as="targetPoint" />
          </mxGeometry>
        </mxCell>
        <mxCell id="eZUUJ8Yt2M7rZzIzO6yd-123" value="" style="rounded=0;whiteSpace=wrap;html=1;fillColor=#B3B3B3;strokeColor=#666666;flipV=0;" parent="1" vertex="1">
          <mxGeometry x="520" y="243" width="26" height="14" as="geometry" />
        </mxCell>
        <mxCell id="eZUUJ8Yt2M7rZzIzO6yd-124" value="&lt;font style=&quot;font-size: 4px; line-height: 160%;&quot;&gt;Impressora&lt;/font&gt;" style="rounded=0;whiteSpace=wrap;html=1;fontSize=7;fillColor=#FFB6D5;strokeColor=#862C56;fontColor=#000000;opacity=70;" parent="1" vertex="1">
          <mxGeometry x="522.5" y="247" width="21" height="6" as="geometry" />
        </mxCell>
        <mxCell id="eZUUJ8Yt2M7rZzIzO6yd-138" value="" style="endArrow=none;html=1;rounded=0;exitX=0.661;exitY=0.662;exitDx=0;exitDy=0;exitPerimeter=0;strokeColor=#90C3FF;" parent="1" source="eZUUJ8Yt2M7rZzIzO6yd-148" target="eZUUJ8Yt2M7rZzIzO6yd-143" edge="1">
          <mxGeometry width="50" height="50" relative="1" as="geometry">
            <mxPoint x="441.6439999999998" y="379.96978180640986" as="sourcePoint" />
            <mxPoint x="391.6439999999998" y="329.96978180640986" as="targetPoint" />
          </mxGeometry>
        </mxCell>
        <mxCell id="eZUUJ8Yt2M7rZzIzO6yd-139" value="" style="image;points=[];aspect=fixed;html=1;align=center;shadow=1;dashed=0;image=img/lib/allied_telesis/computer_and_terminals/Personal_Computer_with_Server.svg;imageBorder=none;imageBackground=none;flipV=0;flipH=1;" parent="1" vertex="1">
          <mxGeometry x="372" y="361" width="14" height="14" as="geometry" />
        </mxCell>
        <mxCell id="eZUUJ8Yt2M7rZzIzO6yd-140" value="" style="endArrow=none;html=1;rounded=0;entryX=0.525;entryY=0.482;entryDx=0;entryDy=0;entryPerimeter=0;strokeColor=#90C3FF;" parent="1" source="eZUUJ8Yt2M7rZzIzO6yd-139" target="eZUUJ8Yt2M7rZzIzO6yd-141" edge="1">
          <mxGeometry width="50" height="50" relative="1" as="geometry">
            <mxPoint x="338" y="407" as="sourcePoint" />
            <mxPoint x="388" y="357" as="targetPoint" />
          </mxGeometry>
        </mxCell>
        <mxCell id="eZUUJ8Yt2M7rZzIzO6yd-142" value="" style="image;points=[];aspect=fixed;html=1;align=center;shadow=1;dashed=0;image=img/lib/allied_telesis/computer_and_terminals/Personal_Computer_with_Server.svg;imageBorder=none;imageBackground=none;flipV=0;flipH=1;" parent="1" vertex="1">
          <mxGeometry x="372" y="378" width="14" height="14" as="geometry" />
        </mxCell>
        <mxCell id="eZUUJ8Yt2M7rZzIzO6yd-143" value="" style="image;points=[];aspect=fixed;html=1;align=center;shadow=1;dashed=0;image=img/lib/allied_telesis/computer_and_terminals/Personal_Computer_with_Server.svg;imageBorder=none;imageBackground=none;flipV=0;flipH=0;" parent="1" vertex="1">
          <mxGeometry x="450" y="360" width="14" height="14" as="geometry" />
        </mxCell>
        <mxCell id="eZUUJ8Yt2M7rZzIzO6yd-144" value="" style="image;points=[];aspect=fixed;html=1;align=center;shadow=1;dashed=0;image=img/lib/allied_telesis/computer_and_terminals/Personal_Computer_with_Server.svg;imageBorder=none;imageBackground=none;flipV=0;flipH=0;" parent="1" vertex="1">
          <mxGeometry x="450" y="378" width="14" height="14" as="geometry" />
        </mxCell>
        <mxCell id="eZUUJ8Yt2M7rZzIzO6yd-145" value="" style="endArrow=none;html=1;rounded=0;exitX=0.661;exitY=0.472;exitDx=0;exitDy=0;exitPerimeter=0;strokeColor=#90C3FF;" parent="1" source="eZUUJ8Yt2M7rZzIzO6yd-146" target="eZUUJ8Yt2M7rZzIzO6yd-142" edge="1">
          <mxGeometry width="50" height="50" relative="1" as="geometry">
            <mxPoint x="378" y="407" as="sourcePoint" />
            <mxPoint x="428" y="357" as="targetPoint" />
          </mxGeometry>
        </mxCell>
        <mxCell id="eZUUJ8Yt2M7rZzIzO6yd-147" value="" style="endArrow=none;html=1;rounded=0;exitX=0.661;exitY=0.601;exitDx=0;exitDy=0;exitPerimeter=0;strokeColor=#90C3FF;" parent="1" source="eZUUJ8Yt2M7rZzIzO6yd-149" target="eZUUJ8Yt2M7rZzIzO6yd-144" edge="1">
          <mxGeometry width="50" height="50" relative="1" as="geometry">
            <mxPoint x="441.6439999999998" y="400.73424668177404" as="sourcePoint" />
            <mxPoint x="391.6439999999998" y="350.73424668177404" as="targetPoint" />
          </mxGeometry>
        </mxCell>
        <mxCell id="eZUUJ8Yt2M7rZzIzO6yd-151" value="" style="rounded=0;whiteSpace=wrap;html=1;strokeWidth=1;fillColor=#FFCCFF;strokeColor=#985891;fontStyle=1" parent="1" vertex="1">
          <mxGeometry x="472" y="323" width="3" height="114" as="geometry" />
        </mxCell>
        <mxCell id="eZUUJ8Yt2M7rZzIzO6yd-153" value="" style="rounded=0;whiteSpace=wrap;html=1;strokeWidth=1;fillColor=#FFCCFF;strokeColor=#985891;" parent="1" vertex="1">
          <mxGeometry x="361" y="323" width="3" height="114" as="geometry" />
        </mxCell>
        <mxCell id="eZUUJ8Yt2M7rZzIzO6yd-146" value="" style="rounded=0;whiteSpace=wrap;html=1;fillColor=light-dark(#9970C2,#EDEDED);strokeColor=#411E5D;" parent="1" vertex="1">
          <mxGeometry x="364" y="378" width="4" height="4" as="geometry" />
        </mxCell>
        <mxCell id="eZUUJ8Yt2M7rZzIzO6yd-141" value="" style="rounded=0;whiteSpace=wrap;html=1;fillColor=light-dark(#9970C2,#EDEDED);strokeColor=#411E5D;" parent="1" vertex="1">
          <mxGeometry x="364" y="361" width="4" height="4" as="geometry" />
        </mxCell>
        <mxCell id="eZUUJ8Yt2M7rZzIzO6yd-148" value="" style="rounded=0;whiteSpace=wrap;html=1;fillColor=light-dark(#9970C2,#EDEDED);strokeColor=#411E5D;flipV=0;flipH=0;" parent="1" vertex="1">
          <mxGeometry x="468" y="360" width="4" height="4" as="geometry" />
        </mxCell>
        <mxCell id="eZUUJ8Yt2M7rZzIzO6yd-149" value="" style="rounded=0;whiteSpace=wrap;html=1;fillColor=light-dark(#9970C2,#EDEDED);strokeColor=#411E5D;flipV=0;flipH=0;" parent="1" vertex="1">
          <mxGeometry x="468" y="378" width="4" height="4" as="geometry" />
        </mxCell>
        <mxCell id="eZUUJ8Yt2M7rZzIzO6yd-154" value="" style="rounded=0;whiteSpace=wrap;html=1;fillColor=#B3B3B3;strokeColor=#666666;flipV=0;" parent="1" vertex="1">
          <mxGeometry x="405" y="423" width="26" height="14" as="geometry" />
        </mxCell>
        <mxCell id="eZUUJ8Yt2M7rZzIzO6yd-155" value="&lt;font style=&quot;font-size: 4px; line-height: 160%;&quot;&gt;Impressora&lt;/font&gt;" style="rounded=0;whiteSpace=wrap;html=1;fontSize=7;fillColor=#FFB6D5;strokeColor=#862C56;fontColor=#000000;opacity=70;" parent="1" vertex="1">
          <mxGeometry x="407.5" y="427" width="21" height="6" as="geometry" />
        </mxCell>
        <mxCell id="eZUUJ8Yt2M7rZzIzO6yd-158" value="" style="rounded=0;whiteSpace=wrap;html=1;fillColor=#B3B3B3;strokeColor=#666666;flipV=0;" parent="1" vertex="1">
          <mxGeometry x="329" y="423" width="26" height="14" as="geometry" />
        </mxCell>
        <mxCell id="eZUUJ8Yt2M7rZzIzO6yd-159" value="&lt;font style=&quot;font-size: 4px; line-height: 160%;&quot;&gt;Impressora&lt;/font&gt;" style="rounded=0;whiteSpace=wrap;html=1;fontSize=7;fillColor=#FFB6D5;strokeColor=#862C56;fontColor=#000000;opacity=70;" parent="1" vertex="1">
          <mxGeometry x="331.5" y="427" width="21" height="6" as="geometry" />
        </mxCell>
        <mxCell id="eZUUJ8Yt2M7rZzIzO6yd-167" value="" style="rounded=0;whiteSpace=wrap;html=1;strokeWidth=1;fillColor=#FFCCFF;strokeColor=#985891;" parent="1" vertex="1">
          <mxGeometry x="597" y="143" width="114" height="3" as="geometry" />
        </mxCell>
        <mxCell id="eZUUJ8Yt2M7rZzIzO6yd-165" value="" style="rounded=0;whiteSpace=wrap;html=1;fillColor=#776150;strokeColor=#372219;flipV=0;" parent="1" vertex="1">
          <mxGeometry x="636.5" y="143" width="35" height="77" as="geometry" />
        </mxCell>
        <mxCell id="eZUUJ8Yt2M7rZzIzO6yd-166" value="" style="rounded=0;whiteSpace=wrap;html=1;fillColor=#776150;strokeColor=#372219;flipV=0;" parent="1" vertex="1">
          <mxGeometry x="597" y="143" width="18" height="78" as="geometry" />
        </mxCell>
        <mxCell id="eZUUJ8Yt2M7rZzIzO6yd-174" value="" style="image;points=[];aspect=fixed;html=1;align=center;shadow=1;dashed=0;image=img/lib/allied_telesis/computer_and_terminals/Personal_Computer_with_Server.svg;imageBorder=none;imageBackground=none;flipV=0;flipH=0;" parent="1" vertex="1">
          <mxGeometry x="637" y="182" width="14" height="14" as="geometry" />
        </mxCell>
        <mxCell id="eZUUJ8Yt2M7rZzIzO6yd-175" value="" style="image;points=[];aspect=fixed;html=1;align=center;shadow=1;dashed=0;image=img/lib/allied_telesis/computer_and_terminals/Personal_Computer_with_Server.svg;imageBorder=none;imageBackground=none;flipV=0;flipH=0;" parent="1" vertex="1">
          <mxGeometry x="637" y="204" width="14" height="14" as="geometry" />
        </mxCell>
        <mxCell id="eZUUJ8Yt2M7rZzIzO6yd-179" value="" style="image;points=[];aspect=fixed;html=1;align=center;shadow=1;dashed=0;image=img/lib/allied_telesis/computer_and_terminals/Personal_Computer_with_Server.svg;imageBorder=none;imageBackground=none;flipV=0;flipH=1;" parent="1" vertex="1">
          <mxGeometry x="656" y="193" width="14" height="14" as="geometry" />
        </mxCell>
        <mxCell id="eZUUJ8Yt2M7rZzIzO6yd-185" value="" style="rounded=0;whiteSpace=wrap;html=1;fillColor=#776150;strokeColor=#372219;flipV=0;" parent="1" vertex="1">
          <mxGeometry x="693" y="143" width="18" height="78" as="geometry" />
        </mxCell>
        <mxCell id="eZUUJ8Yt2M7rZzIzO6yd-190" value="" style="rounded=0;whiteSpace=wrap;html=1;fillColor=#B3B3B3;strokeColor=#666666;flipV=0;flipH=0;direction=south;" parent="1" vertex="1">
          <mxGeometry x="697" y="231" width="14" height="26" as="geometry" />
        </mxCell>
        <mxCell id="eZUUJ8Yt2M7rZzIzO6yd-191" value="&lt;font style=&quot;font-size: 4px; line-height: 160%;&quot;&gt;Impressora&lt;/font&gt;" style="rounded=0;whiteSpace=wrap;html=1;fontSize=7;fillColor=#FFB6D5;strokeColor=#862C56;fontColor=#000000;opacity=70;flipH=0;direction=east;" parent="1" vertex="1">
          <mxGeometry x="695" y="242" width="21" height="6" as="geometry" />
        </mxCell>
        <mxCell id="eZUUJ8Yt2M7rZzIzO6yd-196" value="" style="rounded=0;whiteSpace=wrap;html=1;strokeWidth=1;fillColor=#FFCCFF;strokeColor=#985891;opacity=50;" parent="1" vertex="1">
          <mxGeometry x="652.62" y="143" width="2" height="77" as="geometry" />
        </mxCell>
        <mxCell id="eZUUJ8Yt2M7rZzIzO6yd-197" value="" style="rounded=0;whiteSpace=wrap;html=1;strokeWidth=1;fillColor=#FFCCFF;strokeColor=#985891;opacity=50;" parent="1" vertex="1">
          <mxGeometry x="709" y="143" width="2" height="77" as="geometry" />
        </mxCell>
        <mxCell id="eZUUJ8Yt2M7rZzIzO6yd-198" value="" style="rounded=0;whiteSpace=wrap;html=1;strokeWidth=1;fillColor=#FFCCFF;strokeColor=#985891;opacity=50;" parent="1" vertex="1">
          <mxGeometry x="597" y="143" width="2" height="77" as="geometry" />
        </mxCell>
        <mxCell id="eZUUJ8Yt2M7rZzIzO6yd-200" value="" style="rounded=0;whiteSpace=wrap;html=1;fillColor=light-dark(#9970C2,#EDEDED);strokeColor=#411E5D;opacity=50;" parent="1" vertex="1">
          <mxGeometry x="599" y="200" width="4" height="4" as="geometry" />
        </mxCell>
        <mxCell id="eZUUJ8Yt2M7rZzIzO6yd-201" value="" style="rounded=0;whiteSpace=wrap;html=1;fillColor=light-dark(#9970C2,#EDEDED);strokeColor=#411E5D;opacity=50;" parent="1" vertex="1">
          <mxGeometry x="599" y="180" width="4" height="4" as="geometry" />
        </mxCell>
        <mxCell id="eZUUJ8Yt2M7rZzIzO6yd-202" value="" style="rounded=0;whiteSpace=wrap;html=1;fillColor=light-dark(#9970C2,#EDEDED);strokeColor=#411E5D;opacity=50;" parent="1" vertex="1">
          <mxGeometry x="599" y="161" width="4" height="4" as="geometry" />
        </mxCell>
        <mxCell id="eZUUJ8Yt2M7rZzIzO6yd-203" value="" style="rounded=0;whiteSpace=wrap;html=1;fillColor=light-dark(#9970C2,#EDEDED);strokeColor=#411E5D;opacity=50;" parent="1" vertex="1">
          <mxGeometry x="599" y="143" width="4" height="4" as="geometry" />
        </mxCell>
        <mxCell id="DhVEsOsOKXqqjmm3N5Vq-5" value="" style="image;points=[];aspect=fixed;html=1;align=center;shadow=1;dashed=0;image=img/lib/allied_telesis/computer_and_terminals/Personal_Computer_with_Server.svg;imageBorder=none;imageBackground=none;flipV=0;flipH=0;" parent="1" vertex="1">
          <mxGeometry x="694" y="205" width="14" height="14" as="geometry" />
        </mxCell>
        <mxCell id="DhVEsOsOKXqqjmm3N5Vq-7" value="" style="rounded=0;whiteSpace=wrap;html=1;fillColor=light-dark(#9970C2,#EDEDED);strokeColor=#411E5D;opacity=50;" parent="1" vertex="1">
          <mxGeometry x="705" y="199" width="4" height="4" as="geometry" />
        </mxCell>
        <mxCell id="DhVEsOsOKXqqjmm3N5Vq-8" value="" style="rounded=0;whiteSpace=wrap;html=1;fillColor=light-dark(#9970C2,#EDEDED);strokeColor=#411E5D;opacity=50;" parent="1" vertex="1">
          <mxGeometry x="705" y="181" width="4" height="4" as="geometry" />
        </mxCell>
        <mxCell id="DhVEsOsOKXqqjmm3N5Vq-9" value="" style="rounded=0;whiteSpace=wrap;html=1;fillColor=light-dark(#9970C2,#EDEDED);strokeColor=#411E5D;opacity=50;" parent="1" vertex="1">
          <mxGeometry x="705" y="162" width="4" height="4" as="geometry" />
        </mxCell>
        <mxCell id="DhVEsOsOKXqqjmm3N5Vq-10" value="" style="rounded=0;whiteSpace=wrap;html=1;fillColor=light-dark(#9970C2,#EDEDED);strokeColor=#411E5D;opacity=50;" parent="1" vertex="1">
          <mxGeometry x="705" y="143" width="4" height="4" as="geometry" />
        </mxCell>
        <mxCell id="DhVEsOsOKXqqjmm3N5Vq-11" value="" style="rounded=0;whiteSpace=wrap;html=1;fillColor=light-dark(#9970C2,#EDEDED);strokeColor=#411E5D;opacity=50;" parent="1" vertex="1">
          <mxGeometry x="648.62" y="143" width="4" height="4" as="geometry" />
        </mxCell>
        <mxCell id="DhVEsOsOKXqqjmm3N5Vq-12" value="" style="rounded=0;whiteSpace=wrap;html=1;fillColor=light-dark(#9970C2,#EDEDED);strokeColor=#411E5D;opacity=50;" parent="1" vertex="1">
          <mxGeometry x="654.62" y="147" width="4" height="4" as="geometry" />
        </mxCell>
        <mxCell id="DhVEsOsOKXqqjmm3N5Vq-13" value="" style="rounded=0;whiteSpace=wrap;html=1;fillColor=light-dark(#9970C2,#EDEDED);strokeColor=#411E5D;opacity=50;" parent="1" vertex="1">
          <mxGeometry x="648" y="158" width="4" height="4" as="geometry" />
        </mxCell>
        <mxCell id="DhVEsOsOKXqqjmm3N5Vq-14" value="" style="rounded=0;whiteSpace=wrap;html=1;fillColor=light-dark(#9970C2,#EDEDED);strokeColor=#411E5D;opacity=50;" parent="1" vertex="1">
          <mxGeometry x="654.62" y="167" width="4" height="4" as="geometry" />
        </mxCell>
        <mxCell id="DhVEsOsOKXqqjmm3N5Vq-15" value="" style="rounded=0;whiteSpace=wrap;html=1;fillColor=light-dark(#9970C2,#EDEDED);strokeColor=#411E5D;opacity=50;" parent="1" vertex="1">
          <mxGeometry x="648.62" y="176" width="4" height="4" as="geometry" />
        </mxCell>
        <mxCell id="DhVEsOsOKXqqjmm3N5Vq-16" value="" style="rounded=0;whiteSpace=wrap;html=1;fillColor=light-dark(#9970C2,#EDEDED);strokeColor=#411E5D;opacity=50;" parent="1" vertex="1">
          <mxGeometry x="654.62" y="187" width="4" height="4" as="geometry" />
        </mxCell>
        <mxCell id="DhVEsOsOKXqqjmm3N5Vq-17" value="" style="rounded=0;whiteSpace=wrap;html=1;fillColor=light-dark(#9970C2,#EDEDED);strokeColor=#411E5D;opacity=50;" parent="1" vertex="1">
          <mxGeometry x="648.62" y="198" width="4" height="4" as="geometry" />
        </mxCell>
        <mxCell id="DhVEsOsOKXqqjmm3N5Vq-18" value="" style="endArrow=none;html=1;rounded=0;strokeColor=#90C3FF;entryX=0.585;entryY=0.578;entryDx=0;entryDy=0;entryPerimeter=0;" parent="1" source="eZUUJ8Yt2M7rZzIzO6yd-168" target="eZUUJ8Yt2M7rZzIzO6yd-203" edge="1">
          <mxGeometry width="50" height="50" relative="1" as="geometry">
            <mxPoint x="574" y="141" as="sourcePoint" />
            <mxPoint x="570" y="140" as="targetPoint" />
          </mxGeometry>
        </mxCell>
        <mxCell id="DhVEsOsOKXqqjmm3N5Vq-19" value="" style="endArrow=none;html=1;rounded=0;strokeColor=#90C3FF;entryX=0.546;entryY=0.54;entryDx=0;entryDy=0;entryPerimeter=0;" parent="1" source="eZUUJ8Yt2M7rZzIzO6yd-169" target="eZUUJ8Yt2M7rZzIzO6yd-202" edge="1">
          <mxGeometry width="50" height="50" relative="1" as="geometry">
            <mxPoint x="602" y="143" as="sourcePoint" />
            <mxPoint x="600" y="140" as="targetPoint" />
          </mxGeometry>
        </mxCell>
        <mxCell id="eZUUJ8Yt2M7rZzIzO6yd-168" value="" style="image;points=[];aspect=fixed;html=1;align=center;shadow=1;dashed=0;image=img/lib/allied_telesis/computer_and_terminals/Personal_Computer_with_Server.svg;imageBorder=none;imageBackground=none;flipV=0;flipH=1;" parent="1" vertex="1">
          <mxGeometry x="600" y="148" width="14" height="14" as="geometry" />
        </mxCell>
        <mxCell id="eZUUJ8Yt2M7rZzIzO6yd-169" value="" style="image;points=[];aspect=fixed;html=1;align=center;shadow=1;dashed=0;image=img/lib/allied_telesis/computer_and_terminals/Personal_Computer_with_Server.svg;imageBorder=none;imageBackground=none;flipV=0;flipH=1;" parent="1" vertex="1">
          <mxGeometry x="600" y="167" width="14" height="14" as="geometry" />
        </mxCell>
        <mxCell id="eZUUJ8Yt2M7rZzIzO6yd-170" value="" style="image;points=[];aspect=fixed;html=1;align=center;shadow=1;dashed=0;image=img/lib/allied_telesis/computer_and_terminals/Personal_Computer_with_Server.svg;imageBorder=none;imageBackground=none;flipV=0;flipH=1;" parent="1" vertex="1">
          <mxGeometry x="600" y="186" width="14" height="14" as="geometry" />
        </mxCell>
        <mxCell id="eZUUJ8Yt2M7rZzIzO6yd-171" value="" style="image;points=[];aspect=fixed;html=1;align=center;shadow=1;dashed=0;image=img/lib/allied_telesis/computer_and_terminals/Personal_Computer_with_Server.svg;imageBorder=none;imageBackground=none;flipV=0;flipH=1;" parent="1" vertex="1">
          <mxGeometry x="600" y="205" width="14" height="14" as="geometry" />
        </mxCell>
        <mxCell id="DhVEsOsOKXqqjmm3N5Vq-20" value="" style="endArrow=none;html=1;rounded=0;strokeColor=#90C3FF;entryX=0.469;entryY=0.558;entryDx=0;entryDy=0;entryPerimeter=0;" parent="1" target="eZUUJ8Yt2M7rZzIzO6yd-201" edge="1">
          <mxGeometry width="50" height="50" relative="1" as="geometry">
            <mxPoint x="603" y="186" as="sourcePoint" />
            <mxPoint x="600" y="160" as="targetPoint" />
          </mxGeometry>
        </mxCell>
        <mxCell id="DhVEsOsOKXqqjmm3N5Vq-21" value="" style="endArrow=none;html=1;rounded=0;strokeColor=#90C3FF;entryX=0.527;entryY=0.423;entryDx=0;entryDy=0;entryPerimeter=0;" parent="1" source="eZUUJ8Yt2M7rZzIzO6yd-171" target="eZUUJ8Yt2M7rZzIzO6yd-200" edge="1">
          <mxGeometry width="50" height="50" relative="1" as="geometry">
            <mxPoint x="602" y="184" as="sourcePoint" />
            <mxPoint x="600" y="180" as="targetPoint" />
          </mxGeometry>
        </mxCell>
        <mxCell id="DhVEsOsOKXqqjmm3N5Vq-22" value="" style="endArrow=none;html=1;rounded=0;strokeColor=#90C3FF;entryX=0.574;entryY=0.366;entryDx=0;entryDy=0;entryPerimeter=0;" parent="1" source="eZUUJ8Yt2M7rZzIzO6yd-172" target="DhVEsOsOKXqqjmm3N5Vq-11" edge="1">
          <mxGeometry width="50" height="50" relative="1" as="geometry">
            <mxPoint x="602" y="143" as="sourcePoint" />
            <mxPoint x="600" y="140" as="targetPoint" />
          </mxGeometry>
        </mxCell>
        <mxCell id="DhVEsOsOKXqqjmm3N5Vq-23" value="" style="endArrow=none;html=1;rounded=0;strokeColor=#90C3FF;entryX=0.574;entryY=0.653;entryDx=0;entryDy=0;entryPerimeter=0;" parent="1" source="eZUUJ8Yt2M7rZzIzO6yd-173" target="DhVEsOsOKXqqjmm3N5Vq-13" edge="1">
          <mxGeometry width="50" height="50" relative="1" as="geometry">
            <mxPoint x="650" y="154" as="sourcePoint" />
            <mxPoint x="652" y="150" as="targetPoint" />
          </mxGeometry>
        </mxCell>
        <mxCell id="eZUUJ8Yt2M7rZzIzO6yd-172" value="" style="image;points=[];aspect=fixed;html=1;align=center;shadow=1;dashed=0;image=img/lib/allied_telesis/computer_and_terminals/Personal_Computer_with_Server.svg;imageBorder=none;imageBackground=none;flipV=0;flipH=0;" parent="1" vertex="1">
          <mxGeometry x="637" y="148" width="14" height="14" as="geometry" />
        </mxCell>
        <mxCell id="DhVEsOsOKXqqjmm3N5Vq-24" value="" style="endArrow=none;html=1;rounded=0;strokeColor=#90C3FF;entryX=0.516;entryY=0.458;entryDx=0;entryDy=0;entryPerimeter=0;" parent="1" source="eZUUJ8Yt2M7rZzIzO6yd-174" target="DhVEsOsOKXqqjmm3N5Vq-15" edge="1">
          <mxGeometry width="50" height="50" relative="1" as="geometry">
            <mxPoint x="650" y="144" as="sourcePoint" />
            <mxPoint x="652" y="140" as="targetPoint" />
          </mxGeometry>
        </mxCell>
        <mxCell id="eZUUJ8Yt2M7rZzIzO6yd-173" value="" style="image;points=[];aspect=fixed;html=1;align=center;shadow=1;dashed=0;image=img/lib/allied_telesis/computer_and_terminals/Personal_Computer_with_Server.svg;imageBorder=none;imageBackground=none;flipV=0;flipH=0;" parent="1" vertex="1">
          <mxGeometry x="637" y="164" width="14" height="14" as="geometry" />
        </mxCell>
        <mxCell id="DhVEsOsOKXqqjmm3N5Vq-25" value="" style="endArrow=none;html=1;rounded=0;strokeColor=#90C3FF;entryX=0.593;entryY=0.612;entryDx=0;entryDy=0;entryPerimeter=0;" parent="1" source="eZUUJ8Yt2M7rZzIzO6yd-175" target="DhVEsOsOKXqqjmm3N5Vq-17" edge="1">
          <mxGeometry width="50" height="50" relative="1" as="geometry">
            <mxPoint x="640" y="184" as="sourcePoint" />
            <mxPoint x="643" y="180" as="targetPoint" />
          </mxGeometry>
        </mxCell>
        <mxCell id="DhVEsOsOKXqqjmm3N5Vq-27" value="" style="endArrow=none;html=1;rounded=0;strokeColor=#90C3FF;entryX=0.367;entryY=0.621;entryDx=0;entryDy=0;entryPerimeter=0;" parent="1" source="eZUUJ8Yt2M7rZzIzO6yd-176" target="DhVEsOsOKXqqjmm3N5Vq-12" edge="1">
          <mxGeometry width="50" height="50" relative="1" as="geometry">
            <mxPoint x="650" y="144" as="sourcePoint" />
            <mxPoint x="652" y="140" as="targetPoint" />
          </mxGeometry>
        </mxCell>
        <mxCell id="DhVEsOsOKXqqjmm3N5Vq-28" value="" style="endArrow=none;html=1;rounded=0;strokeColor=#90C3FF;entryX=0.483;entryY=0.517;entryDx=0;entryDy=0;entryPerimeter=0;" parent="1" source="eZUUJ8Yt2M7rZzIzO6yd-178" target="DhVEsOsOKXqqjmm3N5Vq-14" edge="1">
          <mxGeometry width="50" height="50" relative="1" as="geometry">
            <mxPoint x="652" y="154" as="sourcePoint" />
            <mxPoint x="650" y="150" as="targetPoint" />
          </mxGeometry>
        </mxCell>
        <mxCell id="eZUUJ8Yt2M7rZzIzO6yd-176" value="" style="image;points=[];aspect=fixed;html=1;align=center;shadow=1;dashed=0;image=img/lib/allied_telesis/computer_and_terminals/Personal_Computer_with_Server.svg;imageBorder=none;imageBackground=none;flipV=0;flipH=1;" parent="1" vertex="1">
          <mxGeometry x="656" y="153" width="14" height="14" as="geometry" />
        </mxCell>
        <mxCell id="DhVEsOsOKXqqjmm3N5Vq-29" value="" style="endArrow=none;html=1;rounded=0;strokeColor=#90C3FF;entryX=0.541;entryY=0.468;entryDx=0;entryDy=0;entryPerimeter=0;" parent="1" source="eZUUJ8Yt2M7rZzIzO6yd-179" target="DhVEsOsOKXqqjmm3N5Vq-16" edge="1">
          <mxGeometry width="50" height="50" relative="1" as="geometry">
            <mxPoint x="652" y="174" as="sourcePoint" />
            <mxPoint x="650" y="170" as="targetPoint" />
          </mxGeometry>
        </mxCell>
        <mxCell id="eZUUJ8Yt2M7rZzIzO6yd-178" value="" style="image;points=[];aspect=fixed;html=1;align=center;shadow=1;dashed=0;image=img/lib/allied_telesis/computer_and_terminals/Personal_Computer_with_Server.svg;imageBorder=none;imageBackground=none;flipV=0;flipH=1;" parent="1" vertex="1">
          <mxGeometry x="656" y="173" width="14" height="14" as="geometry" />
        </mxCell>
        <mxCell id="DhVEsOsOKXqqjmm3N5Vq-30" value="" style="endArrow=none;html=1;rounded=0;strokeColor=#90C3FF;entryX=0.514;entryY=0.347;entryDx=0;entryDy=0;entryPerimeter=0;" parent="1" source="DhVEsOsOKXqqjmm3N5Vq-2" target="DhVEsOsOKXqqjmm3N5Vq-10" edge="1">
          <mxGeometry width="50" height="50" relative="1" as="geometry">
            <mxPoint x="690" y="160" as="sourcePoint" />
            <mxPoint x="690" y="150" as="targetPoint" />
          </mxGeometry>
        </mxCell>
        <mxCell id="DhVEsOsOKXqqjmm3N5Vq-31" value="" style="endArrow=none;html=1;rounded=0;strokeColor=#90C3FF;entryX=0.417;entryY=0.501;entryDx=0;entryDy=0;entryPerimeter=0;" parent="1" source="DhVEsOsOKXqqjmm3N5Vq-3" target="DhVEsOsOKXqqjmm3N5Vq-9" edge="1">
          <mxGeometry width="50" height="50" relative="1" as="geometry">
            <mxPoint x="700" y="144" as="sourcePoint" />
            <mxPoint x="702" y="140" as="targetPoint" />
          </mxGeometry>
        </mxCell>
        <mxCell id="DhVEsOsOKXqqjmm3N5Vq-2" value="" style="image;points=[];aspect=fixed;html=1;align=center;shadow=1;dashed=0;image=img/lib/allied_telesis/computer_and_terminals/Personal_Computer_with_Server.svg;imageBorder=none;imageBackground=none;flipV=0;flipH=0;" parent="1" vertex="1">
          <mxGeometry x="694" y="148" width="14" height="14" as="geometry" />
        </mxCell>
        <mxCell id="DhVEsOsOKXqqjmm3N5Vq-33" value="" style="endArrow=none;html=1;rounded=0;strokeColor=#90C3FF;entryX=0.591;entryY=0.732;entryDx=0;entryDy=0;entryPerimeter=0;" parent="1" source="DhVEsOsOKXqqjmm3N5Vq-4" target="DhVEsOsOKXqqjmm3N5Vq-8" edge="1">
          <mxGeometry width="50" height="50" relative="1" as="geometry">
            <mxPoint x="700" y="164" as="sourcePoint" />
            <mxPoint x="702" y="160" as="targetPoint" />
          </mxGeometry>
        </mxCell>
        <mxCell id="DhVEsOsOKXqqjmm3N5Vq-3" value="" style="image;points=[];aspect=fixed;html=1;align=center;shadow=1;dashed=0;image=img/lib/allied_telesis/computer_and_terminals/Personal_Computer_with_Server.svg;imageBorder=none;imageBackground=none;flipV=0;flipH=0;" parent="1" vertex="1">
          <mxGeometry x="694" y="168" width="14" height="14" as="geometry" />
        </mxCell>
        <mxCell id="DhVEsOsOKXqqjmm3N5Vq-34" value="" style="endArrow=none;html=1;rounded=0;strokeColor=#90C3FF;entryX=0.591;entryY=0.654;entryDx=0;entryDy=0;entryPerimeter=0;" parent="1" source="DhVEsOsOKXqqjmm3N5Vq-5" target="DhVEsOsOKXqqjmm3N5Vq-7" edge="1">
          <mxGeometry width="50" height="50" relative="1" as="geometry">
            <mxPoint x="700" y="183" as="sourcePoint" />
            <mxPoint x="702" y="180" as="targetPoint" />
          </mxGeometry>
        </mxCell>
        <mxCell id="DhVEsOsOKXqqjmm3N5Vq-4" value="" style="image;points=[];aspect=fixed;html=1;align=center;shadow=1;dashed=0;image=img/lib/allied_telesis/computer_and_terminals/Personal_Computer_with_Server.svg;imageBorder=none;imageBackground=none;flipV=0;flipH=0;" parent="1" vertex="1">
          <mxGeometry x="694" y="187" width="14" height="14" as="geometry" />
        </mxCell>
        <mxCell id="DhVEsOsOKXqqjmm3N5Vq-57" value="" style="rounded=0;whiteSpace=wrap;html=1;strokeWidth=1;fillColor=#FFCCFF;strokeColor=#985891;fontStyle=1" parent="1" vertex="1">
          <mxGeometry x="478" y="323" width="3" height="114" as="geometry" />
        </mxCell>
        <mxCell id="DhVEsOsOKXqqjmm3N5Vq-49" value="" style="image;points=[];aspect=fixed;html=1;align=center;shadow=1;dashed=0;image=img/lib/allied_telesis/computer_and_terminals/Personal_Computer_with_Server.svg;imageBorder=none;imageBackground=none;flipV=0;flipH=1;" parent="1" vertex="1">
          <mxGeometry x="490.76" y="451" width="14" height="14" as="geometry" />
        </mxCell>
        <mxCell id="DhVEsOsOKXqqjmm3N5Vq-50" value="" style="image;points=[];aspect=fixed;html=1;align=center;shadow=1;dashed=0;image=img/lib/allied_telesis/computer_and_terminals/Personal_Computer_with_Server.svg;imageBorder=none;imageBackground=none;flipV=0;flipH=1;" parent="1" vertex="1">
          <mxGeometry x="490.76" y="469" width="14" height="14" as="geometry" />
        </mxCell>
        <mxCell id="DhVEsOsOKXqqjmm3N5Vq-60" value="" style="image;points=[];aspect=fixed;html=1;align=center;shadow=1;dashed=0;image=img/lib/allied_telesis/computer_and_terminals/Personal_Computer_with_Server.svg;imageBorder=none;imageBackground=none;flipV=0;flipH=1;" parent="1" vertex="1">
          <mxGeometry x="490.76" y="433" width="14" height="14" as="geometry" />
        </mxCell>
        <mxCell id="DhVEsOsOKXqqjmm3N5Vq-66" value="" style="rounded=0;whiteSpace=wrap;html=1;fillColor=#B3B3B3;strokeColor=#666666;flipV=0;" parent="1" vertex="1">
          <mxGeometry x="287" y="143" width="26" height="14" as="geometry" />
        </mxCell>
        <mxCell id="DhVEsOsOKXqqjmm3N5Vq-67" value="&lt;font style=&quot;font-size: 4px; line-height: 160%;&quot;&gt;Impressora&lt;/font&gt;" style="rounded=0;whiteSpace=wrap;html=1;fontSize=7;fillColor=#FFB6D5;strokeColor=#862C56;fontColor=#000000;opacity=70;" parent="1" vertex="1">
          <mxGeometry x="289.5" y="147" width="21" height="6" as="geometry" />
        </mxCell>
        <mxCell id="dDfeJPoktVR23VwG93gN-7" value="" style="ellipse;whiteSpace=wrap;html=1;aspect=fixed;strokeColor=none;shadow=1;" vertex="1" parent="1">
          <mxGeometry x="297" y="143" width="6" height="6" as="geometry" />
        </mxCell>
        <mxCell id="dDfeJPoktVR23VwG93gN-6" value="" style="image;aspect=fixed;html=1;points=[];align=center;fontSize=12;image=img/lib/azure2/integration/Integration_Environments.svg;labelPosition=center;verticalLabelPosition=bottom;verticalAlign=top;strokeWidth=0;imageBorder=none;shadow=0;imageBackground=none;perimeterSpacing=0;fillStyle=auto;" vertex="1" parent="1">
          <mxGeometry x="297.5" y="143.36" width="5" height="5.28" as="geometry" />
        </mxCell>
        <mxCell id="dDfeJPoktVR23VwG93gN-12" value="" style="ellipse;whiteSpace=wrap;html=1;aspect=fixed;strokeColor=none;shadow=1;" vertex="1" parent="1">
          <mxGeometry x="530" y="243" width="6" height="6" as="geometry" />
        </mxCell>
        <mxCell id="dDfeJPoktVR23VwG93gN-13" value="" style="image;aspect=fixed;html=1;points=[];align=center;fontSize=12;image=img/lib/azure2/integration/Integration_Environments.svg;labelPosition=center;verticalLabelPosition=bottom;verticalAlign=top;strokeWidth=0;imageBorder=none;shadow=0;imageBackground=none;perimeterSpacing=0;fillStyle=auto;" vertex="1" parent="1">
          <mxGeometry x="530.5" y="243.36" width="5" height="5.28" as="geometry" />
        </mxCell>
        <mxCell id="dDfeJPoktVR23VwG93gN-46" value="" style="rounded=0;whiteSpace=wrap;html=1;fillColor=#F5F5F5;strokeColor=#E2BF35;" vertex="1" parent="1">
          <mxGeometry x="537" y="360" width="56" height="77" as="geometry" />
        </mxCell>
        <mxCell id="dDfeJPoktVR23VwG93gN-33" value="" style="rounded=0;whiteSpace=wrap;html=1;fillColor=#E6E6E6;strokeColor=#999999;flipV=0;" vertex="1" parent="1">
          <mxGeometry x="540" y="426" width="35" height="10" as="geometry" />
        </mxCell>
        <mxCell id="dDfeJPoktVR23VwG93gN-37" value="&lt;font style=&quot;font-size: 4px; line-height: 160%;&quot;&gt;Ar-condicionado&lt;/font&gt;" style="rounded=0;whiteSpace=wrap;html=1;fontSize=7;fillColor=#FFB6D5;strokeColor=#862C56;fontColor=#000000;opacity=70;" vertex="1" parent="1">
          <mxGeometry x="542" y="428" width="31" height="6" as="geometry" />
        </mxCell>
        <mxCell id="dDfeJPoktVR23VwG93gN-14" value="" style="image;points=[];aspect=fixed;html=1;align=center;shadow=0;dashed=0;image=img/lib/allied_telesis/computer_and_terminals/Server_Desktop.svg;flipH=0;" vertex="1" parent="1">
          <mxGeometry x="575" y="363.99999999999994" width="13" height="16.48" as="geometry" />
        </mxCell>
        <mxCell id="dDfeJPoktVR23VwG93gN-49" value="" style="image;points=[];aspect=fixed;html=1;align=center;shadow=0;dashed=0;image=img/lib/allied_telesis/computer_and_terminals/Server_Desktop.svg;flipH=0;" vertex="1" parent="1">
          <mxGeometry x="575" y="379" width="13" height="16.48" as="geometry" />
        </mxCell>
        <mxCell id="dDfeJPoktVR23VwG93gN-50" value="" style="image;points=[];aspect=fixed;html=1;align=center;shadow=0;dashed=0;image=img/lib/allied_telesis/computer_and_terminals/Server_Desktop.svg;flipH=0;" vertex="1" parent="1">
          <mxGeometry x="575" y="394.48" width="13" height="16.48" as="geometry" />
        </mxCell>
        <mxCell id="dDfeJPoktVR23VwG93gN-51" value="" style="image;points=[];aspect=fixed;html=1;align=center;shadow=0;dashed=0;image=img/lib/allied_telesis/computer_and_terminals/Server_Desktop.svg;flipH=0;" vertex="1" parent="1">
          <mxGeometry x="575" y="409.52" width="13" height="16.48" as="geometry" />
        </mxCell>
        <mxCell id="dDfeJPoktVR23VwG93gN-44" value="" style="image;points=[];aspect=fixed;html=1;align=center;shadow=0;dashed=0;image=img/lib/allied_telesis/switch/Switch_24_port_L2.svg;" vertex="1" parent="1">
          <mxGeometry x="550" y="365.40000000000003" width="22" height="15.08" as="geometry" />
        </mxCell>
      </root>
    </mxGraphModel>
  </diagram>
</mxfile>
